<svg xmlns="http://www.w3.org/2000/svg" xmlns:xlink="http://www.w3.org/1999/xlink" width="17.646" height="17.645" viewBox="0 0 17.646 17.645">
  <defs>
    <clipPath id="clip-path">
      <path id="Caminho_395" data-name="Caminho 395" d="M201.34,207.638a7.084,7.084,0,1,1,5,2.068,7.082,7.082,0,0,1-5-2.068m10.262.257-.012-.012a7.418,7.418,0,0,0-3.109-12.353,7.761,7.761,0,0,1,4.368,12.485c-.169.2-.346.4-.536.59a8.488,8.488,0,0,1-11.989.048,8.352,8.352,0,0,1-2.338-4.556,8.118,8.118,0,0,0,13.616,3.8m-11.231-.246a7.777,7.777,0,0,1-.289-10.679c.094-.1.191-.205.29-.306a8.487,8.487,0,0,1,11.989-.047,8.347,8.347,0,0,1,2.337,4.55,8.111,8.111,0,0,0-13.614-3.791l.011.011a7.417,7.417,0,0,0,3.115,12.354,7.711,7.711,0,0,1-3.839-2.092m-.246-11.232a8.793,8.793,0,1,0,12.483-.048,8.732,8.732,0,0,0-6.2-2.557,8.867,8.867,0,0,0-6.286,2.605" transform="translate(0)" fill="none"/>
    </clipPath>
    <linearGradient id="linear-gradient" x1="-0.205" y1="1.281" x2="-0.203" y2="1.281" gradientUnits="objectBoundingBox">
      <stop offset="0" stop-color="#df290c"/>
      <stop offset="0.071" stop-color="#e1320a"/>
      <stop offset="0.505" stop-color="#ed6700"/>
      <stop offset="0.664" stop-color="#f38d00"/>
      <stop offset="0.889" stop-color="#fbbf00"/>
      <stop offset="1" stop-color="#ffd300"/>
    </linearGradient>
  </defs>
  <g id="Grupo_212" data-name="Grupo 212" transform="translate(-197.519 -193.813)" clip-path="url(#clip-path)">
    <rect id="Retângulo_57" data-name="Retângulo 57" width="27.106" height="27.071" transform="matrix(0.752, -0.659, 0.659, 0.752, 187.228, 201.584)" fill="url(#linear-gradient)"/>
  </g>
</svg>
