<svg xmlns="http://www.w3.org/2000/svg" width="22.988" height="22.969" viewBox="0 0 22.988 22.969">
  <g id="Grupo_206" data-name="Grupo 206" transform="translate(0 0)">
    <path id="Caminho_32" data-name="Caminho 32" d="M440.507,41.187c1.638,0,3.278-.049,4.914.011a6.15,6.15,0,0,1,5.987,6.028q.108,5.4,0,10.811a6.127,6.127,0,0,1-6.026,6.046q-5.4.108-10.811,0a6.121,6.121,0,0,1-6.045-6.025q-.111-5.4,0-10.812a6.144,6.144,0,0,1,6.024-6.05C436.535,41.137,438.522,41.187,440.507,41.187Zm8.841,11.484c0-1.715.038-3.431-.009-5.145a4.129,4.129,0,0,0-4.255-4.246q-5.115-.084-10.232,0a4.1,4.1,0,0,0-4.247,4.246q-.084,5.114,0,10.231a4.107,4.107,0,0,0,4.246,4.252q5.115.078,10.233,0a4.138,4.138,0,0,0,4.255-4.251C449.387,56.065,449.348,54.368,449.348,52.672Z" transform="translate(-428.474 -41.168)" fill="#ef7803"/>
    <path id="Caminho_33" data-name="Caminho 33" d="M449.374,56.087a5.928,5.928,0,1,1-5.93,5.926A5.872,5.872,0,0,1,449.374,56.087Zm3.831,5.923a3.832,3.832,0,1,0-3.841,3.838A3.782,3.782,0,0,0,453.205,62.01Z" transform="translate(-437.878 -50.54)" fill="#ef7803"/>
    <path id="Caminho_34" data-name="Caminho 34" d="M473.625,51.737a1.314,1.314,0,0,1,1.366,1.382,1.4,1.4,0,0,1-1.387,1.392,1.455,1.455,0,0,1-1.4-1.411A1.394,1.394,0,0,1,473.625,51.737Z" transform="translate(-455.948 -47.808)" fill="#ef7803"/>
  </g>
</svg>
