<svg xmlns="http://www.w3.org/2000/svg" xmlns:xlink="http://www.w3.org/1999/xlink" width="70.058" height="76.227" viewBox="0 0 70.058 76.227">
  <defs>
    <radialGradient id="radial-gradient" cx="0.506" cy="0.382" r="0.491" gradientTransform="translate(0)" gradientUnits="objectBoundingBox">
      <stop offset="0" stop-color="#fff"/>
      <stop offset="0.209" stop-color="#fffefc"/>
      <stop offset="0.339" stop-color="#fffbf3"/>
      <stop offset="0.448" stop-color="#fff7e5"/>
      <stop offset="0.544" stop-color="#fff0d0"/>
      <stop offset="0.631" stop-color="#ffe8b6"/>
      <stop offset="0.705" stop-color="#ffe09a"/>
      <stop offset="0.904" stop-color="#ffca4c"/>
      <stop offset="1" stop-color="#ffc22c"/>
    </radialGradient>
    <radialGradient id="radial-gradient-2" cx="0.514" cy="0.282" r="0.569" gradientTransform="translate(1.076) scale(0.537 1)" gradientUnits="objectBoundingBox">
      <stop offset="0" stop-color="#73aa17"/>
      <stop offset="0.007" stop-color="#72a917"/>
      <stop offset="0.689" stop-color="#209255"/>
      <stop offset="1" stop-color="#00896e"/>
    </radialGradient>
    <radialGradient id="radial-gradient-3" cx="0.884" cy="0.834" r="1.593" gradientTransform="translate(0)" gradientUnits="objectBoundingBox">
      <stop offset="0" stop-color="#ffa900"/>
      <stop offset="0.559" stop-color="#e13505"/>
    </radialGradient>
    <linearGradient id="linear-gradient" x1="0.111" y1="0.841" x2="0.88" y2="0.167" gradientUnits="objectBoundingBox">
      <stop offset="0" stop-color="#df2808"/>
      <stop offset="0.505" stop-color="#ec6500"/>
      <stop offset="1" stop-color="#ffd400"/>
    </linearGradient>
  </defs>
  <g id="Grupo_11" data-name="Grupo 11" transform="translate(-299.19 -165.162)">
    <g id="Grupo_7" data-name="Grupo 7" transform="translate(310.558 165.162)">
      <g id="Grupo_5" data-name="Grupo 5" transform="translate(1.316 1.317)">
        <path id="Caminho_4" data-name="Caminho 4" d="M386.394,191.3a21.558,21.558,0,1,1-21.558-21.559A21.555,21.555,0,0,1,386.394,191.3Z" transform="translate(-343.278 -169.738)" fill="url(#radial-gradient)"/>
        <path id="Caminho_5" data-name="Caminho 5" d="M343.784,243.794a21.555,21.555,0,0,0,42.621,1.378c-3.8-1.543-7.12-4.15-10.96-4.15-4.346,0-6.647,4.284-10,4.284-3.849,0-5.736-5.34-12.471-5.34C349.478,239.965,346.857,242.217,343.784,243.794Z" transform="translate(-343.638 -219.761)" fill="url(#radial-gradient-2)"/>
        <path id="Caminho_6" data-name="Caminho 6" d="M389.41,265.386c-6.157-.982-6.748-4.4-10.116-4.4-2.307,0-4.226,3.305-5.56,3.305-2.349,0-4.362-4.841-10.092-4.841-5.311,0-8.129,5.518-12.127,5.368-.143,0-.275-.021-.414-.031a21.56,21.56,0,0,0,17.631,11.895l3.376,0A21.553,21.553,0,0,0,389.41,265.386Z" transform="translate(-348.85 -233.642)" fill="#005b5b"/>
        <path id="Caminho_7" data-name="Caminho 7" d="M408.3,205.085a6.715,6.715,0,1,1-6.714-6.716A6.715,6.715,0,0,1,408.3,205.085Z" transform="translate(-380.029 -190.132)" fill="url(#radial-gradient-3)"/>
        <g id="Grupo_4" data-name="Grupo 4" transform="translate(8.225 30.49)">
          <path id="Caminho_8" data-name="Caminho 8" d="M389.089,275.715h-1.33c1,1.2,2.481,5.062-15.892,8a21.46,21.46,0,0,0,13.333,4.622c.614,0,1.22-.03,1.821-.081C394.27,282.027,391.85,276.941,389.089,275.715Z" transform="translate(-371.867 -275.715)" fill="#00afec"/>
        </g>
      </g>
      <g id="Grupo_6" data-name="Grupo 6" transform="translate(0)">
        <path id="Caminho_9" data-name="Caminho 9" d="M361.578,165.162a22.873,22.873,0,1,0,22.873,22.874A22.874,22.874,0,0,0,361.578,165.162Zm0,39.865a16.991,16.991,0,1,1,16.992-16.991A16.99,16.99,0,0,1,361.578,205.027Z" transform="translate(-338.704 -165.162)" fill="#ec6500"/>
        <path id="Caminho_10" data-name="Caminho 10" d="M348.018,174.479a21.995,21.995,0,1,0,31.224-.12A22.1,22.1,0,0,0,348.018,174.479Zm30.605.5a20.885,20.885,0,0,1,5.847,11.38,20.29,20.29,0,0,0-34.053-9.481l.028.028a18.552,18.552,0,0,0,7.792,30.9,19.409,19.409,0,0,1-10.327-31.944c.235-.259.476-.514.726-.765A21.228,21.228,0,0,1,378.623,174.979Zm-27.565,27.565a17.7,17.7,0,1,1,25.023,0A17.714,17.714,0,0,1,351.058,202.544Zm-2.542,2.542a20.887,20.887,0,0,1-5.848-11.4,20.291,20.291,0,0,0,34.057,9.5l-.03-.03a18.555,18.555,0,0,0-7.777-30.9,19.414,19.414,0,0,1,10.926,31.23c-.422.506-.866,1-1.341,1.475A21.232,21.232,0,0,1,348.517,205.085Z" transform="translate(-340.697 -167.158)" fill="url(#linear-gradient)"/>
      </g>
    </g>
    <g id="Grupo_10" data-name="Grupo 10" transform="translate(299.19 211.913)">
      <path id="Caminho_11" data-name="Caminho 11" d="M373.448,396.516a5.033,5.033,0,0,1,1.875-.223,5.957,5.957,0,0,1,1.067.318,5.772,5.772,0,0,0,1.282.342,3.273,3.273,0,0,0,1.019-.06,3.116,3.116,0,0,0,1.284-.534,2.017,2.017,0,0,0,.181-.2c.052-.07.083-.3.042-.3a.491.491,0,0,0-.159.028,3.8,3.8,0,0,1-.4.087q-.28.05-.64.1a2.918,2.918,0,0,1-1.207-.175l-.6-.211c-.33-.114-.59-.2-.779-.248a3.93,3.93,0,0,0-.613-.107,3.194,3.194,0,0,0-1.312.193,2.379,2.379,0,0,0-1.009.541C373.349,396.226,373.318,396.5,373.448,396.516Zm14.559,3.163a4.32,4.32,0,0,1-2,.321,1,1,0,0,1-.7-.554,1.066,1.066,0,0,0-.32-.4c-.069-.071-.243-.071-.522,0a3.084,3.084,0,0,0-.776.31c-.236.136-.341.243-.314.328a1,1,0,0,1,.085.552,4.987,4.987,0,0,1-.943,1.963,5.29,5.29,0,0,1-.818.911,1.717,1.717,0,0,1-.669.416.7.7,0,0,1-.42-.017c-.112-.094-.167-.319-.167-.672a4.351,4.351,0,0,1,.755-2.2,4.886,4.886,0,0,1,1.989-1.894,2.978,2.978,0,0,1,2.176-.267c.071.011.114,0,.127-.037.043-.129-.105-.354-.44-.673a1.9,1.9,0,0,0-1.34-.619,3.734,3.734,0,0,0-2.576,1.045,6.661,6.661,0,0,0-1.865,2.991c-.018.06-.031.115-.047.173a11.3,11.3,0,0,1-.957.909c-.295.248-.58.468-.859.664a4.7,4.7,0,0,1-.67.407.714.714,0,0,1-.314.1c-.14-.037-.154-.3-.043-.8a13.464,13.464,0,0,1,1.257-2.586l.292-.5c.113-.189.189-.324.232-.409s.091-.173.147-.274a1.028,1.028,0,0,0,.1-.239.718.718,0,0,0,.02-.159q0-.444-.648-.709a2.694,2.694,0,0,0-.4-.115,1.787,1.787,0,0,0-.325-.043c-.077,0-.122.011-.135.033l-.252.568a2.742,2.742,0,0,0-1.676-.85,2.875,2.875,0,0,0-2.136,1.133,6.791,6.791,0,0,0-1.593,3.063,2.691,2.691,0,0,0,.106,2.109,2.011,2.011,0,0,0,.692.513,1.951,1.951,0,0,0,.86.214q.4,0,2.05-2.623a4.715,4.715,0,0,0-.124.815,1.227,1.227,0,0,0,.46,1.135,2.526,2.526,0,0,0,1.4.6,1.611,1.611,0,0,0,1.018-.532,7.358,7.358,0,0,0,.952-1.043c.141-.192.267-.384.384-.577a1.791,1.791,0,0,0,.264,1.249,2.759,2.759,0,0,0,.89.682,2.3,2.3,0,0,0,1,.346,3.621,3.621,0,0,0,2.553-1.541c.628-.719,1.1-2,1.215-1.966a2.654,2.654,0,0,0,3.04-.975.343.343,0,0,0,.085-.214C388.126,399.657,388.09,399.633,388.007,399.678Zm-13.217,1.482a20.658,20.658,0,0,1-1.433,1.621,2.962,2.962,0,0,1-.744.637c-.155,0-.18-.247-.082-.745a6.256,6.256,0,0,1,1.361-2.832c.7-.84,1.325-1.256,1.882-1.256a1.646,1.646,0,0,1,.63.16l-.378.67A13.7,13.7,0,0,1,374.789,401.161ZM359.7,396.944a1.706,1.706,0,0,0-.628-1.107c-.435-.442-.749-.663-.944-.663a1.275,1.275,0,0,0-.072.344,12.293,12.293,0,0,1-2.981,6.123A6.9,6.9,0,0,1,354,402.67q-.377.283-.5.266a50.567,50.567,0,0,1,1.928-5.066c.669-1.553.572-1.818.5-2.1-.058-.239-.344-.58-.983-1a3.252,3.252,0,0,0-1.322-.629c-3.834.039-5.58,3.08-5.58,4.08a1.371,1.371,0,0,0,.482,1.135,1.823,1.823,0,0,0,.765.347,2.316,2.316,0,0,0,.764.079c.014,0,0-.038-.031-.115a2.7,2.7,0,0,1-.127-.382,2.129,2.129,0,0,1-.072-.566c0-.651.633-2.576,3.853-3.488.235-.067.379-.1.45-.062.11.047.1.347-.022.9a15.623,15.623,0,0,1-1.007,3.051,20.383,20.383,0,0,0-1.194,3.843.813.813,0,0,0,.157.539,2.87,2.87,0,0,0,.619.488,1.439,1.439,0,0,0,.773.318,2.46,2.46,0,0,0,.89-.512,23.881,23.881,0,0,0,1.907-1.737,15.983,15.983,0,0,0,3.262-4.422A3.161,3.161,0,0,0,359.7,396.944Zm12.116,1.072c0-.186-.161-.358-.483-.512a1.544,1.544,0,0,0-.6-.071,1.3,1.3,0,0,0-.514.107,7.614,7.614,0,0,0-1.7,1.365q-1.278,1.292-2.03,2.177l.4-.778c.083-.153.177-.334.281-.542l.252-.5c.062-.125.129-.251.2-.382a1.935,1.935,0,0,0,.146-.328.8.8,0,0,0,.041-.22c0-.165-.125-.337-.377-.514a1.5,1.5,0,0,0-.512-.211,1.884,1.884,0,0,0-.5-.063c-.131,0-.2.019-.22.046q-.188.353-.836,1.964-.422,1.071-.779,2.054-.484.352-1.083.727a9.988,9.988,0,0,1-1.992.964,2.183,2.183,0,0,1-1.3.168c-.167-.071-.242-.287-.229-.656a3.129,3.129,0,0,1,.145-.85,7.758,7.758,0,0,0,3.539-1.382,2.631,2.631,0,0,0,.87-1.143,1.019,1.019,0,0,0-.031-.963,2.882,2.882,0,0,0-.943-.816,2.677,2.677,0,0,0-1.235-.479,2.518,2.518,0,0,0-1.824.87,6.127,6.127,0,0,0-1.756,3.028,2.907,2.907,0,0,0,.145,2.319,2.26,2.26,0,0,0,.869.717,3.164,3.164,0,0,0,1.016.363,2.937,2.937,0,0,0,1.455-.309,6.959,6.959,0,0,0,1.895-1.3l.022-.021c-.072.209-.144.42-.211.623a.316.316,0,0,0,.168.426q.921.531,1.046.3c.057-.1.164-.326.325-.691s.333-.716.512-1.054a3.28,3.28,0,0,1,.585-.806,22.142,22.142,0,0,1,2.451-2.179,3.416,3.416,0,0,0-.44.938c-.139.46-.139.763,0,.905a2.076,2.076,0,0,0,1.2.406,5.649,5.649,0,0,1,.627-1.5,8.512,8.512,0,0,1,.639-.994c.244-.329.434-.589.566-.778A.9.9,0,0,0,371.818,398.015Zm-10.239,1.4a4.177,4.177,0,0,1,.878-.716,1.573,1.573,0,0,1,.712-.275c.238,0,.169.322-.208.957a4.59,4.59,0,0,1-1.718,1.506,6.9,6.9,0,0,1-.878.426A7.085,7.085,0,0,1,361.579,399.415Z" transform="translate(-333.989 -375.016)" fill="#ec6500"/>
      <g id="Grupo_9" data-name="Grupo 9" transform="translate(0)">
        <g id="Grupo_8" data-name="Grupo 8" transform="translate(67.087 0.15)">
          <path id="Caminho_12" data-name="Caminho 12" d="M534.475,329.621a.345.345,0,0,0,.11-.14.51.51,0,0,0,.039-.207.406.406,0,0,0-.13-.32.675.675,0,0,0-.458-.119h-.725v1.658h.2v-.764h.373l.474.764h.243l-.5-.764a.933.933,0,0,0,.205-.031A.445.445,0,0,0,534.475,329.621Zm-.462-.054h-.5v-.587h.474a1.04,1.04,0,0,1,.149.011.384.384,0,0,1,.133.039.238.238,0,0,1,.1.086.279.279,0,0,1,.038.155.268.268,0,0,1-.058.188.293.293,0,0,1-.145.087A.762.762,0,0,1,534.012,329.567Zm1.217-.481a1.472,1.472,0,0,0-.318-.471,1.568,1.568,0,0,0-.472-.317,1.428,1.428,0,0,0-.576-.118,1.444,1.444,0,0,0-.581.118,1.549,1.549,0,0,0-.472.317,1.5,1.5,0,0,0-.32.471,1.432,1.432,0,0,0-.117.577,1.451,1.451,0,0,0,.117.581,1.515,1.515,0,0,0,.792.791,1.449,1.449,0,0,0,.581.119,1.432,1.432,0,0,0,.576-.119,1.549,1.549,0,0,0,.472-.32,1.493,1.493,0,0,0,.318-.471,1.47,1.47,0,0,0,.116-.581A1.451,1.451,0,0,0,535.229,329.086Zm-.214,1.086a1.294,1.294,0,0,1-.258.409,1.189,1.189,0,0,1-.394.274,1.255,1.255,0,0,1-.5.1,1.268,1.268,0,0,1-.5-.1,1.209,1.209,0,0,1-.4-.274,1.274,1.274,0,0,1-.26-.409,1.421,1.421,0,0,1,0-1.017,1.233,1.233,0,0,1,.26-.407,1.212,1.212,0,0,1,.4-.271,1.255,1.255,0,0,1,.5-.1,1.242,1.242,0,0,1,.5.1,1.191,1.191,0,0,1,.394.271,1.251,1.251,0,0,1,.258.407,1.413,1.413,0,0,1,0,1.017Z" transform="translate(-532.374 -328.18)" fill="#002d73"/>
        </g>
        <path id="Caminho_13" data-name="Caminho 13" d="M323.144,327.813l-.019,0v0h-2.448v10.836l-3.358-10.194a.891.891,0,0,0-.854-.642h-3.3v18.655h3.532V336.29l3.538,9.563h0a.889.889,0,0,0,.843.615h2.961V328.706A.892.892,0,0,0,323.144,327.813Zm-12.895,0h-2.76V346.47h3.651V328.7A.894.894,0,0,0,310.249,327.812Zm-5.283,15.731-.011,0h-2.1V328.712h0v-.006a.892.892,0,0,0-.893-.892l-.01,0v0H299.19v17.554h0a1.119,1.119,0,0,0,1.111,1.1v0h5.556v-2.042h0A.893.893,0,0,0,304.966,343.543Zm50.056-15.73h0a.89.89,0,0,0-.871.736l-1.315,6.426-1.352-6.448h0a.894.894,0,0,0-.876-.715h-2.983l3.285,11.813v6.844h3.652v-6.844l3.284-11.813Zm10.524.954h-.007a1.062,1.062,0,0,0-1.055-.956h-4.348v0a1.056,1.056,0,0,0-1.035.953H359.1l-2.128,17.7h3.659l.4-4.223h2.589l.4,4.223h3.659ZM361.3,339.354l.8-8.5h.434l.8,8.5Zm-30.623-11.541h-4.587V346.47h4.587c3.678,0,5.162-1.288,5.162-3.5V331.313C335.838,329.1,334.354,327.813,330.676,327.813Zm1.509,14.852c0,.683-.429,1.088-1.509,1.088h-.936V330.529h.936c1.081,0,1.509.4,1.509,1.088Zm10.25-15.005h-.009c-3.371,0-4.809,1.239-4.809,3.653v11.646c0,2.414,1.438,3.65,4.809,3.65h.009c3.373,0,4.809-1.237,4.809-3.65V331.313C347.243,328.9,345.807,327.66,342.435,327.66Zm1.157,15.3a1.054,1.054,0,0,1-1.157,1.1h-.009a1.055,1.055,0,0,1-1.158-1.1V331.313a1.059,1.059,0,0,1,1.158-1.1h.009a1.057,1.057,0,0,1,1.157,1.1Z" transform="translate(-299.19 -327.66)" fill="#002d73"/>
      </g>
    </g>
  </g>
</svg>
