<svg xmlns="http://www.w3.org/2000/svg" xmlns:xlink="http://www.w3.org/1999/xlink" width="1366" height="512" viewBox="0 0 1366 512">
  <defs>
    <clipPath id="clip-path">
      <rect id="Ret칙ngulo_74" data-name="Ret칙ngulo 74" width="1366" height="512" transform="translate(0 2604)" fill-opacity="0" stroke="#707070" stroke-width="1"/>
    </clipPath>
  </defs>
  <g id="Grupo_de_m치scara_10" data-name="Grupo de m치scara 10" transform="translate(0 -2604)" clip-path="url(#clip-path)">
    <path id="Caminho_401" data-name="Caminho 401" d="M10715.346,1234.048l8.411,6.107s191.881-19.1,267.833,20.32,165.758,78.2,269.323,61.281,362.062-66.915,421.559-46.679,258.362,72.834,434.071,54.978,0,262.323,0,262.323l-1492.124,7.232Z" transform="translate(-10841.054 1217.734)" fill-opacity="0"/>
    <g id="Grupo_222" data-name="Grupo 222" transform="matrix(0.995, 0.105, -0.105, 0.995, -452.246, 2565.92)">
      <path id="Caminho_41" data-name="Caminho 41" d="M61.46,13.876l-2.58.079c-.355-1.272-6.637-3.148-11.472-3-1.811.055-2.6.536-2.627,1.086l-.016.336c-.059,1.209,9.738,3.813,10.082,5.054l-4.916-.913c.176,1.436,1.364,1.412,4.87,1.918l-1.431.7c6.648.959,7.083,4.5,14.067,4.949l-1.323.712c-5.265-.763-17.109-6.092-20.8-7.942a101.438,101.438,0,0,0-9.257-4.3c-3.207-1.207-12.928-1.228-15.741-1.446l2.815-1.05c.512.018,4.7.151,6.257.1l3.88-.23c1.5-.459.26-.566,3.9-.677a3.761,3.761,0,0,1,2.551.593l5.112-.564a143.845,143.845,0,0,0-15.524-4.4c-9.5-2.207-6.424-2.218-18.9-2.526L2.635,3.616-.117,2.721,8.208,1.243l2.173.142.1-.7L13.063.605,13.111-.4l6.46-.189.482,1.642C25.3,1.921,29.59,3.945,34.8,5.3c1.916.5,2.965.277,4.605,1,1.719.757-.908.313,2.64,1.229A36.518,36.518,0,0,0,50.069,9.2c.659,2.379,9.474,1.669,10.131,4.048,4.205.268.959-.464,3.826.888l-2.531.442Z" transform="translate(89.804 64.503)" fill="#193665" fill-rule="evenodd"/>
      <path id="Caminho_42" data-name="Caminho 42" d="M3.032,14.643l2.5.287C5.826,13.18,17.8,6.455,21.5,5.7l.03-.671.016-.336.032-.67c3.786-.769,7.362-2.1,7.9-3.592l2.5.288C32.539-.658,32.623-.418,36-1.1L35.939.24l-.03.671c-2.818,1.158-2.13.3-2.66,1.756l-2.5-.289L30.6,4.088l-2.5-.289L17.615,9.193l-.178.656-2.5-.287c-.542,1.333-.979,1.825-4.051,2.5l1.37.611-2.692.1-.642,2.019-2.321.684-2.244-.228L5.3,16.6l-3.652.207-1.333.935-1.06-.359C.384,16.694,2.721,15.5,3.032,14.643Z" transform="translate(567.479 79.461)" fill="#193665" fill-rule="evenodd"/>
      <path id="Caminho_43" data-name="Caminho 43" d="M21.812,8.717C15.5,7.8,19.4,6.724,12.892,6.308l1.434-.7C8.422,4.759,9.85,3.058,4.055,2.22l1.431-.7L-.018.409,1.793,0,6.5.863l.248-1.07c5.562.9,7.166,4.74,15.2,5.9l-1.432.7,4.218.823-.311.752-2.5-.289Z" transform="translate(104.544 78.462)" fill="#193665" fill-rule="evenodd"/>
      <path id="Caminho_44" data-name="Caminho 44" d="M17.7,7.838c-3.068-1.609-2.738-1.853-8.9-2.745l.032-.671C5.744,3.3,1.468,2.382-.029.67L2.554.592l.03-.671C7.841.769,2.331.78,8.95,1.737L6.134,2.789c3.513.515,3.618.27,3.983,1.593C14.544,4.666,23,7.478,25.4,8.609l-3.874.118C20.045,7.676,23.209,8.432,17.7,7.838Z" transform="translate(126.385 86.509)" fill="#193665" fill-rule="evenodd"/>
      <path id="Caminho_45" data-name="Caminho 45" d="M1.163,1.246-.012.269,5.157-.158c4.452,1.586,19.729,3.575,20.313,5.69C17,4.306,14.288,1.641,1.163,1.246Z" transform="translate(68.544 55.824)" fill="#193665" fill-rule="evenodd"/>
      <path id="Caminho_46" data-name="Caminho 46" d="M6.393-.2l3.875-.118c-.561,1.449-5.3,2.4-9.177,3.183L-.081,1.893C3.128.554,3.356,1.244,6.393-.2Z" transform="translate(552.28 111.526)" fill="#193665" fill-rule="evenodd"/>
      <path id="Caminho_47" data-name="Caminho 47" d="M6.412,1.088,3.687.206,5.394-.165,8,.3l2.337-.339C9.2,1.2,3.386,3.58-.185,4.305l.03-.671A56.045,56.045,0,0,1,6.412,1.088Z" transform="translate(604.714 74.02)" fill="#193665" fill-rule="evenodd"/>
      <path id="Caminho_48" data-name="Caminho 48" d="M-.031.711.164-.005C4.37.6,6.816,2.016,11.666,2.326l-1.322.711L7.76,3.115Z" transform="translate(153.667 78.641)" fill="#193665" fill-rule="evenodd"/>
      <path id="Caminho_49" data-name="Caminho 49" d="M6.236-.191,10.1-.2l1.283.184C8.344,1.538,8.117.849,4.836,2.2l-2.5-.288L2.221,2.948.933,2.986l-1-1.325,3.651-.207C6.39.408,5.706,1.266,6.236-.191Z" transform="translate(520.155 116.412)" fill="#193665" fill-rule="evenodd"/>
      <path id="Caminho_50" data-name="Caminho 50" d="M9.01.466a26.567,26.567,0,0,1-9.052.5L2.775-.085l8.85-.166,2.507.165.035.619L12.673.3Z" transform="translate(672.839 17.984)" fill="#193665" fill-rule="evenodd"/>
      <path id="Caminho_51" data-name="Caminho 51" d="M9.049-.277C8.337,1.266,3.216,2.012-.13,3.018.435,1.457,5.175.508,9.049-.277Z" transform="translate(622.338 68.403)" fill="#193665" fill-rule="evenodd"/>
      <path id="Caminho_52" data-name="Caminho 52" d="M-.1,2.349C2.641,1.221,5.109,1.258,5.175-.159L6.465-.2,6.419.81c-.043.958-.434.625-2.63,1.085l1.373.611Z" transform="translate(553.977 101.309)" fill="#193665" fill-rule="evenodd"/>
      <path id="Caminho_53" data-name="Caminho 53" d="M6.464-.2l3.874-.118c-2.508.961-.264.733-3.89.453L2.8,1.325l-2.859.016A14.63,14.63,0,0,1,6.464-.2Z" transform="translate(445.238 141.813)" fill="#193665" fill-rule="evenodd"/>
      <path id="Caminho_54" data-name="Caminho 54" d="M-.1,2.236l.041-.9L2.512,1.6C3.011.246,3.073.49,6.464-.2L3.316,2.2Z" transform="translate(576.072 85.894)" fill="#193665" fill-rule="evenodd"/>
      <path id="Caminho_55" data-name="Caminho 55" d="M.3-.009C3.836.5,6.264.768,6.646,2.143L-.032.747Z" transform="translate(163.714 81.687)" fill="#193665" fill-rule="evenodd"/>
      <path id="Caminho_56" data-name="Caminho 56" d="M4.885-.15,5.122.923,2.54,1l.486,1.315L-.09,2.087l.031-.671Z" transform="translate(615.456 71.888)" fill="#193665" fill-rule="evenodd"/>
      <path id="Caminho_57" data-name="Caminho 57" d="M2.79,1.59l-.033.67-2.84-.32L3.839.816C2.649-.022,2.008.578,5.45-.167L5.372,1.511Z" transform="translate(558.123 34.167)" fill="#193665" fill-rule="evenodd"/>
      <path id="Caminho_58" data-name="Caminho 58" d="M2.219.87,1.1.318,3.812-.117,4.871.242l-.26.957-2.152.065-.031.671-2.5-.287Z" transform="translate(560.835 98.755)" fill="#193665" fill-rule="evenodd"/>
      <path id="Caminho_59" data-name="Caminho 59" d="M2.59-.079,3.881-.118,3.835.889c-.041.9-1.913,1.05-3.936,1.46l.029-.671C2.265.718,2.529,1.2,2.59-.079Z" transform="translate(531.987 114.04)" fill="#193665" fill-rule="evenodd"/>
      <path id="Caminho_60" data-name="Caminho 60" d="M-.043,1.007,0,0,1.294-.04c-.059,1.276.251.779,2.506,1.6l-.03.671C1.774,1.942-.085,1.9-.043,1.007Z" transform="translate(107.522 76.024)" fill="#193665" fill-rule="evenodd"/>
      <path id="Caminho_61" data-name="Caminho 61" d="M4.077,1.551-.032.743l.31-.752L5.2.9Z" transform="translate(155.641 89.304)" fill="#193665" fill-rule="evenodd"/>
      <path id="Caminho_62" data-name="Caminho 62" d="M2.5.957,2.617-.08,3.906-.12l-.06,1.342-3.918.436L.072.639Z" transform="translate(509.838 130.129)" fill="#193665" fill-rule="evenodd"/>
      <path id="Caminho_63" data-name="Caminho 63" d="M-.07,1.637l5.419-1.8C5.309,1.306,5.085,1.31-.07,1.637Z" transform="translate(591.463 27.354)" fill="#193665" fill-rule="evenodd"/>
      <path id="Caminho_64" data-name="Caminho 64" d="M5.209.3,1.78,1.429-.043,1.006,3.878-.119Z" transform="translate(582.548 83.949)" fill="#193665" fill-rule="evenodd"/>
      <path id="Caminho_65" data-name="Caminho 65" d="M2.59-.079l1.232,1.3L1.239,1.3C.1-.139-1.422.787,2.59-.079Z" transform="translate(21.339 126.899)" fill="#193665" fill-rule="evenodd"/>
      <path id="Caminho_66" data-name="Caminho 66" d="M0,0C3.325.482,3.43.237,3.8,1.56-.386.529.568,1.5,0,0Z" transform="translate(95.29 61.653)" fill="#193665" fill-rule="evenodd"/>
      <path id="Caminho_67" data-name="Caminho 67" d="M5.171-.158,6.824.518l-6.881.823Z" transform="translate(457.04 139.703)" fill="#193665" fill-rule="evenodd"/>
      <path id="Caminho_68" data-name="Caminho 68" d="M0,0,4.132.281.211,1.405Z" transform="translate(483.222 128.593)" fill="#193665" fill-rule="evenodd"/>
      <path id="Caminho_69" data-name="Caminho 69" d="M-.044,1.025,5.113-.157C4.25,1.226,5.391.88-.044,1.025Z" transform="translate(634.752 21.634)" fill="#193665" fill-rule="evenodd"/>
      <path id="Caminho_70" data-name="Caminho 70" d="M3.023,1.335l-3.067-.33L3.88-.119Z" transform="translate(537.213 110.459)" fill="#193665" fill-rule="evenodd"/>
      <path id="Caminho_71" data-name="Caminho 71" d="M1.352-.041l2.723.3L-.058,1.338Z" transform="translate(600.263 76.095)" fill="#193665" fill-rule="evenodd"/>
      <path id="Caminho_72" data-name="Caminho 72" d="M1.35-.041l2.727.3L-.058,1.338Z" transform="translate(521.437 46.995)" fill="#193665" fill-rule="evenodd"/>
      <path id="Caminho_73" data-name="Caminho 73" d="M3.352.347c.012.086-.172.289-.822.719L-.02.474,5.352-.164c-1.016.285-1.633.435-2,.511C3.327.153,2.308.561,3.352.347Z" transform="translate(582.266 32.69)" fill="#193665" fill-rule="evenodd"/>
      <path id="Caminho_74" data-name="Caminho 74" d="M1.286,1.033-.026.615l1.1-.648,2.5.288Z" transform="translate(584.128 89.333)" fill="#193665" fill-rule="evenodd"/>
      <path id="Caminho_75" data-name="Caminho 75" d="M3.961.531l-4.018.811L2.588-.079Z" transform="translate(564.833 97.293)" fill="#193665" fill-rule="evenodd"/>
      <path id="Caminho_76" data-name="Caminho 76" d="M0,.067,2.843-.087,2.551.66Z" transform="translate(172.651 84.431)" fill="#193665" fill-rule="evenodd"/>
      <path id="Caminho_77" data-name="Caminho 77" d="M2.552.658-.032.738,2.33-.071Z" transform="translate(484.653 126.137)" fill="#193665" fill-rule="evenodd"/>
      <path id="Caminho_78" data-name="Caminho 78" d="M2.775-.085l-1.32.71L0,.017Z" transform="translate(36.854 66.112)" fill="#193665" fill-rule="evenodd"/>
      <path id="Caminho_79" data-name="Caminho 79" d="M0,0,2.554.592-.029.671Z" transform="translate(181.84 86.497)" fill="#193665" fill-rule="evenodd"/>
      <path id="Caminho_80" data-name="Caminho 80" d="M2.55.593,0,0,2.583-.078Z" transform="translate(159.719 90.855)" fill="#193665" fill-rule="evenodd"/>
      <path id="Caminho_81" data-name="Caminho 81" d="M2.555.592-.029.671,0,0Z" transform="translate(549.978 100.425)" fill="#193665" fill-rule="evenodd"/>
      <path id="Caminho_82" data-name="Caminho 82" d="M0,0,6.442.462,6.4,1.468C1.052,1.308.42,1.453,0,0Z" transform="translate(2104.236 -8.846)" fill="#193665" fill-rule="evenodd"/>
      <path id="Caminho_83" data-name="Caminho 83" d="M4.832,1.264,0,0,6.378.582Z" transform="translate(2053.844 -3.057)" fill="#193665" fill-rule="evenodd"/>
      <path id="Caminho_84" data-name="Caminho 84" d="M5.232.917-.031.725,1.684-.052Z" transform="translate(2112.934 -3.832)" fill="#193665" fill-rule="evenodd"/>
      <path id="Caminho_85" data-name="Caminho 85" d="M-.018.42,1.14-.035,3.647.252,2.06,1.038Z" transform="translate(2087.525 -5.027)" fill="#193665" fill-rule="evenodd"/>
      <path id="Caminho_86" data-name="Caminho 86" d="M4.124.22,1.364.889-.012.279,2.371-.073Z" transform="translate(2107.906 -4.221)" fill="#193665" fill-rule="evenodd"/>
      <path id="Caminho_87" data-name="Caminho 87" d="M-.012.279,2.371-.073,4.116.22,1.357.89Z" transform="translate(2110.647 -7.655)" fill="#193665" fill-rule="evenodd"/>
      <path id="Caminho_88" data-name="Caminho 88" d="M-.013.308,2.3-.07,3.9.178,2.361.86Z" transform="translate(2095.344 -9.871)" fill="#193665" fill-rule="evenodd"/>
      <path id="Caminho_89" data-name="Caminho 89" d="M2.543.66,0,.067,2.839-.087Z" transform="translate(2102.443 -3.106)" fill="#193665" fill-rule="evenodd"/>
      <path id="Caminho_90" data-name="Caminho 90" d="M0,.067l2.85-.154-.3.747Z" transform="translate(2054.598 -28.457)" fill="#193665" fill-rule="evenodd"/>
      <path id="Caminho_91" data-name="Caminho 91" d="M0,.067l2.85-.154-.3.746Z" transform="translate(2118.524 -16.328)" fill="#193665" fill-rule="evenodd"/>
      <path id="Caminho_92" data-name="Caminho 92" d="M2.847-.087l-.3.746L0,.066Z" transform="translate(2043.928 -20.761)" fill="#193665" fill-rule="evenodd"/>
      <path id="Caminho_93" data-name="Caminho 93" d="M2.551.659,0,.066,2.84-.087Z" transform="translate(2097.307 -3.62)" fill="#193665" fill-rule="evenodd"/>
      <path id="Caminho_94" data-name="Caminho 94" d="M2.294.668,0,0,2.583-.078Z" transform="translate(2118.166 -2.915)" fill="#193665" fill-rule="evenodd"/>
      <path id="Caminho_95" data-name="Caminho 95" d="M2.551.66-.032.738.257-.008Z" transform="translate(2067.816 -1.785)" fill="#193665" fill-rule="evenodd"/>
      <path id="Caminho_96" data-name="Caminho 96" d="M2.554.592-.029.67,2.583-.079Z" transform="translate(2076.787 -0.65)" fill="#193665" fill-rule="evenodd"/>
      <path id="Caminho_97" data-name="Caminho 97" d="M.173-.005c1.114-.044-.735.341,0,0Z" transform="translate(576.992 83.694)" fill="#193665" fill-rule="evenodd"/>
      <path id="Caminho_98" data-name="Caminho 98" d="M6.689,1.006,8.932.649,11.5.985c.7.574,15.061,3.31,17.962,3.424l-.03.672C24.306,4.528,17.349,3.9,15.362,2.492l-2.53.441C9,1.536,4.846,2.049-.012.279L1.507-.046Z" transform="translate(828.641 63.855)" fill="#193665" fill-rule="evenodd"/>
      <path id="Caminho_99" data-name="Caminho 99" d="M11.58,2.081l2.533-.441-.032.671c2.175.791,1.565.959,5.1,1.185l-1.434.7,2.924.532-1.78.4-5.771-.92-.335-1.855L7.678,2.7l-.824-.24.8-.627L0,.059,2.8-.086Z" transform="translate(1013.84 102.67)" fill="#193665" fill-rule="evenodd"/>
      <path id="Caminho_100" data-name="Caminho 100" d="M17.9,3.477l-2.531.442C14.323,2.927,3.855.824-.029.672L0,0c8.661-.016,11.788,3.058,21.77,3.359l-.048,1.007C16.212,3.772,19.379,4.528,17.9,3.477Z" transform="translate(870.973 70.887)" fill="#193665" fill-rule="evenodd"/>
      <path id="Caminho_101" data-name="Caminho 101" d="M5.231,1.876l-2.269.365L0,0,6.685.514c.554,1.334-.052.516,2.665,1.505l-1.57.449Z" transform="translate(920.672 23.177)" fill="#193665" fill-rule="evenodd"/>
      <path id="Caminho_102" data-name="Caminho 102" d="M3.86.218C.195.72,2.423.813,0,0L3.874-.118,6.458-.2c4.471.481,5.919.206,6.364,1.817C7.978,1.1,6.911,1.328,3.86.218Z" transform="translate(882.551 19.938)" fill="#193665" fill-rule="evenodd"/>
      <path id="Caminho_103" data-name="Caminho 103" d="M12.875.492l-7.8.515L-.024.549C3.25-.691,11.3-.038,12.875.492Z" transform="translate(798.924 65.495)" fill="#193665" fill-rule="evenodd"/>
      <path id="Caminho_104" data-name="Caminho 104" d="M2.554.593l-2.532.44L0,0,3.872-.006,6.35,2.153C3.026,1.672,2.92,1.916,2.554.593Z" transform="translate(936.958 25.99)" fill="#193665" fill-rule="evenodd"/>
      <path id="Caminho_105" data-name="Caminho 105" d="M8.948,1.766l-1.522.326L-.016.365,2.516-.077C3.935.913,6.145.748,8.948,1.766Z" transform="translate(858.864 68.547)" fill="#193665" fill-rule="evenodd"/>
      <path id="Caminho_106" data-name="Caminho 106" d="M6.234,1.405a30.319,30.319,0,0,0-4.845-.119L0,0C4.352.589,1.915.806,7.862.753,6.078,1.225,6.176,1.378,6.234,1.405Z" transform="translate(907.628 21.534)" fill="#193665" fill-rule="evenodd"/>
      <path id="Caminho_107" data-name="Caminho 107" d="M4.955-.152c.94.195,1.54.3,1.917.346.011.1.163.271.618.583C4.1.441,8.57.409,3.631.559c-.174.005-2.574.408-2.6.415L-.026.615C3.547-.779-.349.576,4.955-.152Z" transform="translate(789.727 65.319)" fill="#193665" fill-rule="evenodd"/>
      <path id="Caminho_108" data-name="Caminho 108" d="M0,.095c-.035-.29,1.261.162,0,0Z" transform="translate(796.756 65.413)" fill="#193665" fill-rule="evenodd"/>
      <path id="Caminho_109" data-name="Caminho 109" d="M0,0,7.733.1C4.942.839,3.523,1.161,0,0Z" transform="translate(790.126 23.086)" fill="#193665" fill-rule="evenodd"/>
      <path id="Caminho_110" data-name="Caminho 110" d="M5.311,1.216-.02.453,4.255-.13Z" transform="translate(927.163 27.313)" fill="#193665" fill-rule="evenodd"/>
      <path id="Caminho_111" data-name="Caminho 111" d="M0,0C3.279.474,3.86.3,5.1,1.186.545.695,1.376,1.357,0,0Z" transform="translate(951.582 27.22)" fill="#193665" fill-rule="evenodd"/>
      <path id="Caminho_112" data-name="Caminho 112" d="M0,0,5.151.178C2.492.883,2.1,1.491,0,0Z" transform="translate(1013.897 37.722)" fill="#193665" fill-rule="evenodd"/>
      <path id="Caminho_113" data-name="Caminho 113" d="M3.642.308,1.5,1.055-.016.364,2.516-.077Z" transform="translate(810.109 23.12)" fill="#193665" fill-rule="evenodd"/>
      <path id="Caminho_114" data-name="Caminho 114" d="M-.029.682,2.112-.065,3.629.627,1.1,1.067Z" transform="translate(935.677 28.643)" fill="#193665" fill-rule="evenodd"/>
      <path id="Caminho_115" data-name="Caminho 115" d="M0,.067,2.841-.087,2.549.659Z" transform="translate(916.579 26.276)" fill="#193665" fill-rule="evenodd"/>
      <path id="Caminho_116" data-name="Caminho 116" d="M2.843-.087,2.549.659,0,.066Z" transform="translate(807.076 24.917)" fill="#193665" fill-rule="evenodd"/>
      <path id="Caminho_117" data-name="Caminho 117" d="M0,.067,2.845-.087,2.551.659Z" transform="translate(791.516 14.667)" fill="#193665" fill-rule="evenodd"/>
      <path id="Caminho_118" data-name="Caminho 118" d="M0,.066,2.839-.087l-.29.746Z" transform="translate(1001.658 35.75)" fill="#193665" fill-rule="evenodd"/>
      <path id="Caminho_119" data-name="Caminho 119" d="M0,0,1.5.234,2.555.592-.029.671Z" transform="translate(939.416 29.266)" fill="#193665" fill-rule="evenodd"/>
      <path id="Caminho_120" data-name="Caminho 120" d="M0,0,2.813.517-.029.672Z" transform="translate(942.067 29.855)" fill="#193665" fill-rule="evenodd"/>
      <path id="Caminho_121" data-name="Caminho 121" d="M.921-.028,3.814,1.128-.01.239Z" transform="translate(992.018 33.625)" fill="#193665" fill-rule="evenodd"/>
      <path id="Caminho_122" data-name="Caminho 122" d="M0,0,2.555.593-.029.672Z" transform="translate(931.575 25.483)" fill="#193665" fill-rule="evenodd"/>
      <path id="Caminho_123" data-name="Caminho 123" d="M2.554.592-.029.671,0,0Z" transform="translate(942.164 85.476)" fill="#193665" fill-rule="evenodd"/>
      <path id="Caminho_124" data-name="Caminho 124" d="M4.1.808l-.311.752c-.466-.068-.869-.122-1.219-.166C.437,1.116.315,1.137,0,0L2.615.514Z" transform="translate(1037.354 108.046)" fill="#193665" fill-rule="evenodd"/>
      <path id="Caminho_125" data-name="Caminho 125" d="M0,.1c-.029-.288,1.218.151,0,0Z" transform="translate(1905.261 -42.033)" fill="#193665" fill-rule="evenodd"/>
      <path id="Caminho_126" data-name="Caminho 126" d="M0,.091c-.016-.272,1.137.135,0,0Z" transform="translate(1946.628 -43.283)" fill="#193665" fill-rule="evenodd"/>
      <path id="Caminho_127" data-name="Caminho 127" d="M2116.047-25.126l-6.446-1.256-2.425.4-2.9-.905-2.621.442c-3.1-1.086-3.707-.441-5.348-1.541l-2.423.4-2.9-.905-2.423.4-2.892-.906-2.243.222-10.945-1.074-5.426.442.043-1.008c-5.846.781-6.828-.364-10.677-1.714l-2.431.4-2.892-.906-2.621.443a16.809,16.809,0,0,0-8-.426c-2.818-.987-2.189-.169-2.674-1.624l-2.621.443c-4.663-1.634-7.632-1.084-10.661-2.049l-2.621.442c-4.9-1.714-19.335-2.035-23.952-3.655l-2.621.443c-4.55-1.592-3.993-.178-8.023-1.46l-2.144.255-8.5-1.272-2.621.443c-4.147-1.315-5.807.251-8.115-1.662l-7.87-.9-2.422.4-2.83-.878a16.81,16.81,0,0,1-8.067-.454l-2.621.443c-5.019-1.758-6.345-.533-10.663-2.049l-2.423.4-2.9-.9-2.511.422-1.49-.636-2.5.422-1.427-.608c-4.118.548-9.887-.285-13.389-.962l-2.423.4-2.9-.906-2.423.4-2.823-.879a17.5,17.5,0,0,1-6.674-.132l2.788-.483,3.677.229,1.576-.326c-2.511-.81-.2-.72-4-.215a16.808,16.808,0,0,0-8-.426,16.668,16.668,0,0,0-7.88-.449l-1.5-.634-2.509.422-1.474-.463-6.745.078,1.42.609c-7.581.073-16.29-1.107-20.052.275a44.694,44.694,0,0,1,10.706,1.042l2.619-.442c.983.2,1.614.3,2.006.343.024.1.183.264.6.546l5.395-.462c6.794.984,14.994.5,21.274,1.662l5.2-.416,2.9.906,2.621-.444c4.8,1.683,9.592.776,13.337,1.968l2.63-.443c3.961,1.255,3.4-.159,8.015,1.459l2.512-.422,1.487.636,2.271-.275,7.05,1,2.423-.4,2.9.906,2.423-.4,2.9.9,2.621-.442c4.549,1.592,3.984.178,8.015,1.46l2.63-.444c3.094,1.086,3.7.442,5.341,1.542l2.619-.443c6.273,2.2,19.52,2.1,23.953,3.655l2.423-.4,2.9.905,2.367-.377,5.6,1.476,2.621-.443c2.409.843,2.443,1.151,7.671,1.126l1.57,1.272-2.675.082-.024-.525-6.636.057c3.37,1.182,13.211,2.718,18.655,3.472l-1.475.7a81.317,81.317,0,0,1,14.611,3.268l2.62-.443c2.308,1.575,10.912,1.71,13.28,3.311l2.621-.443c6.3,2.2,14.882,2.176,21.248,4.407l2.621-.442-.029.671,2.676-.081c.592,2.059,7.777,1.38,13.28,3.309l2.621-.442c2.367,1.622,6.251.5,10.661,2.05l2.185-.278,11.474,1.689-.773.358-13.036-.979-6.865.116,4.177,1.161-5.351.163c-1.064-.155-3.273-.571-3.984-.549a20.526,20.526,0,0,0-5.158.772l-1.74-.267,2.691-.991-1.163-.384-2.621.442-.092-.6-7.805-.509.92,1.1-3.751-.7-2.628.444.01-1.7-2.619.443c-1.572-1.072-2.178-.429-5.348-1.541l-2.425.4-2.8-.843-5.126.392-7.025-1.783-3.77.817-1.488-.637-2.511.422-1.488-.635-2.621.442-2.7-.952-2.621.443c-.061,1.244-5.02-.073-5.406-.2l-2.62.442a10.9,10.9,0,0,1-4.065,1.13c-1.266.039-28.8-2.753-30.655-3.117l-2.621.443a16.724,16.724,0,0,0-7.8-.473l-2.8-.836-6.789.528-6.659-.861-2.424.4-2.8-.842-5.394.462c-1.844-1.263-.2-.031-3.926-1.2l-3.807.41-1.7-.978-3.888.837c-4.941-1.567-8.612.573-9.432-1.772l-3.612.762-3.032-.53,1.483-.7c-3.649-.505-6.789-.518-9.352-1.42l-2.629.444c-2.274-.721-4.179-.771-9.313-.722,2.361-.941,1.4-.937,6.732-1.209-1.563-.892-2.354-.291,1.367-.712l-.089.615,5.426-.443-1.306-.518-3.939.015,1.239-1-2.657-.333-2.245.247-5.655-.567-8.068.5c-2.308-1.578-3.777-.111-8.025-1.46l-2.62.443a16.829,16.829,0,0,0-8-.426,17.516,17.516,0,0,0-7.75-.547l-5.548-.724c-4.573.61-4.5-.161-10.674-.111l-10.723.428a61.342,61.342,0,0,0-9.335-.387l-4.021.132-8.012-.093-10.678-.018c-3.75-.037-1.417.055-4.028.457-1.359-.371,2.188-.4-2.661-.254l-4.013.122a86.317,86.317,0,0,1-10.673-.345,17.556,17.556,0,0,1-4.035.458l-13.371.435-10.722.633c-5.3.3-10.886.811-13.443,1.749l-2.676.082-.024.559,4.008-.01c-2.263.842-3.5.775-6.518.574l-2.983,1.086-2.59-.286c-3.056,1.122-5.987.752-10.883,2.7l-2.348-.233-5.628,1.839,8.191-.595-2.985,1.086-2.589-.286a17.453,17.453,0,0,1-7.869.95l-2.984,1.084-2.59-.284-.029.67-2.675.082c-.609,1.625-5.365,2.333-9.176,3.379-5.172,1.418-4.668,2.607-9.836,3.231l-.075,1.566-4.018.233c.9.382,1.322.319,1.295.966l-.022.337c-.041.944-.605.639-2.719,1.088,2.46,1.459-2.744,1.461-2.822,3.1l-1.33.04.043-1.006c.065-1.314,2.021-.1,2.771-2.1-8.061,1.586-4.734,3.8-14.4,5.809l-.627,1.349-.051,1.007c-.041.945-.606.639-2.838,1.109l1.427.608-1.417,1.719c-.418.989-.291.573-2.915,1.134l2.852.916-5.187.321-5.562-.367-.2,1.634-4.005.858,1.426.609c-4.518.959-3.345,2.212-6.7,3.547l1.131,1.314c-2.277.462-2.678.129-2.726,1.088l-.216,1.009.037,1.313-2.619.444c1.355.805.674,1.363-2.129,2.082l-.736,2.026-.178.339.037,1.313L1631,22.4l-.627,1.349-.052,1.006c-.025.585-2.979,1.7-3.958,2.125l1.062,1.287-2.621.443c1.514.764,2.6,1.387,2.552,2.6l-.022.336c-.055,1.284.41.11-1.54,1.1l-4.491-.582.524,1.631-2.043.438-.589,1.709,2.621-.443-.1,2.013-2.674.082c2,1.006,2.632,1.818-3.009,1.448l1.3,1.6-1.241,1.421-2.949-.275.208,3.346-.014.336c-.064,1.283.4.109-1.161.985l1.094.358-3.633,1.451-.26.957,1.094.358c-4.148.88-2.15-.15-2.9,1.477l-3.413-.583-3.031,2.356,3.371.617.068.961-3.744,1.5.051-1.007c-6.2,1.3-1.093.2-1.552,1.05l.106,1.34c-1.23.242-4.037.668-4.064,1.129-.032.752,1.031.7,2.618,1.261-3.5.689-3.59.45-4.094,1.8l-2.675.082-.065,1.341c-.041.948-3.13,1.388-5.541,1.862l1.35.583-2.293.426.379,1.916-3.653,1.56,1.358.582-2.826.491,2.83.878c-1,.123-1.639.189-2.076.223.67-.368-1.934.155,0,0a10.5,10.5,0,0,1-1.521.557l-.662,1.074-3.819-.6c-.583,1.573,1.414.543-2.733,1.422,2.094,1.246-10.96,5.793-11.014,7.038l-.022.336c0,.011-4.973,3.886-4.953,4.171l.541,4.676c-2.488.989-3.929,1.238-4.138,2.806-5.542,1.178.182.846-6.9,2.239l1.419.609c-1.861.4-7.851,2.72-8.178,3.6a64.173,64.173,0,0,0-13.609,3.794l-2.59-.285-.043,1.006-2.675.081-.1.7-2.59-.286c-4.166,1.656-9.084,2.319-13.631,4.129l-2.581-.285c-1.289.9-4,1.336-6.77,1.882l.043-1.007c-3.918.832-2.517.03-2.746,1.758-5.94.214-6.208.083-6.827,1.576l-2.589-.285c-5.421,2.158-10.141,1.477-10.814,3.308l-5.369-.135c-2.432.969-6.565,1.5-8.208,2.624l-2.341-.233-5.742,1.82-2.59-.286c-4.976,1.981-9.692,1.362-13.566,2.787l-2.4-.251-2.984,1.085-2.59-.285a17.453,17.453,0,0,1-7.869.95l-2.877.971-8.048-.008c2.6-.965.274-.735,4.028-.458,6.176-1.517,13.7-.872,18.917-2.949l2.59.285c3.1-1.14,15.922-1.816,18.916-4.6-1.974.3-7.868.91-10.738,1-3.771.115-2.486.221-4.114.824l-2.373-.236-1.569.328-6.66-.468c-1.243.187-8.641,1.268-9.415,1.292l-1.325.119-8.039.166a17.781,17.781,0,0,1-6.594.553l-1.478.586-3.82.188-2.83-.879a17.383,17.383,0,0,1-4.028.458l-1.381-.048-12.011.79c-3.933.254-2.152.1-4.042.793l4.013-.122c5.117-.156.49-.117,4,.214,1.388-.455-2.168-.27,2.69-.417l4.013-.122-.014.335c-5.82.177-2.84-.1-5.387.834-.413-.03-5.313-.173-5.343-.026l-22.735.545a40.6,40.6,0,0,1-8-.427,20.277,20.277,0,0,1-2.677.317l-10.722.428a43.494,43.494,0,0,0-9.335-.387l-1.318-.038-8.046.323a16.812,16.812,0,0,0-8-.426c-3.954-1.253-13.986-.312-21.363-1.724l-2.621.443c-1.54-.518-.167-.665-3.984-.549h-1.327l-5.369.206c-.449-.3-.632-.476-.67-.578,1.362.181-.127-.338,0,0-.4-.052-1.031-.163-2.024-.373l-2.269.275-7.052-1-2.621.443a18.057,18.057,0,0,0-9.123-.768l-2.9-.905-2.62.442c-3.108-.589-11.48-1.375-13.338-1.967l-2.621.442c-4.379-1.531-39.83-3.231-42.594-5.1l-2.621.443c-3.995-1.4-19.3-2.024-23.952-3.655l-2.621.443c-5.033-1.764-9.345-1.247-13.308-2.639l-2.621.443c-2.278-1.554-11.054-1.51-15.956-3.229l-2.628.444c-6.411-2.247-16.152-2.625-21.24-4.409l-2.621.443c-6.326-2.214-16.853-2.532-23.887-5l-2.63.444.052-1.007c-3.725-.226-6.626-.872-8-1.8l-2.3.353-16.166-3.481-6.758-1.455,1.481-.7-2.677.082-.037-.7-2.622.443-.024-1.033-2.621.443-.021-1.034-2.625.444c-.5-1.749-9.651-2.918-13.693-4.142-6.7-2.03-6.26-2.366-17.139-3.3l.4.993c-.061,1.283.406.11-1.39,1.159l4.021-.235c.6,2.081,3.294.687,5.319,2.582l3.647-.437,4.108.8-.93,1.3,11.587,2.631,3.936-.015-1.242,1,2.563.27,5.395-.462c.518,1.795,1.475.834,4.266,1.8,1.836.633,1.417,1.445,3.231,2.084.493.174,1.061.358,1.692.544a45.315,45.315,0,0,0,11.27,1.814l11.219,2.181c.428,1.491,15.162,4.774,21.157,4.717,3.369,3.2,22.61,3.617,26.5,6.259l2.621-.442c5.95,2.081,18.834,2.776,21.248,4.408l2.621-.444c4.888,1.711,13.814,1.787,15.954,3.229l2.621-.443c1.572,1.072,2.177.429,5.348,1.541l2.621-.443c2.193,1.5,27.558,3.226,31.913,4.755l2.432-.4,2.89.906,2.381-.325,5.617.751,2.423-.4,2.9.9,2.423-.4,2.9.906,2.374-.325,5.624.751,2.62-.443c3.425,1.2,11.293,1.219,18.136,1.583,6.018.322,14.854,1.208,19.169.632a16.687,16.687,0,0,0,7.887.448l1.418.61a43.962,43.962,0,0,1,10.644.309l5.284-.441,1.39.573,5.126-.387,3.006.574,3.735-.37,4.218.224,12.009-.189c-2.8,1.043-5.7.71-10.776.747l-10.628-.095c-2.147-.022-6.486-.138-6.674-.133-5.116.156-.481-.089-3.917.437l-1.488-.637-2.352.369-2.652-.455-2.968.693c-.007.158,13.526,1.076,14.442,1.2l2.872-1.021,9.34.653,5.395-.463a61.134,61.134,0,0,0,9.335.386,37.056,37.056,0,0,1,9.321.723c-6.323.06-6.663-.393-9.393.754l6.584-.317,1.419.61-1.352.377a16.784,16.784,0,0,0-4-.214c-6,.182-1.888-.241-8-.191l-10.513.272-8.155-.572-5.394.461.029-.67c-8.87.219-22.155-1.134-26.7-.528a16.8,16.8,0,0,0-8-.427c-2.637-.836-12.618-1.3-15.749-.973l-5.624-.751-2.62.443a16.8,16.8,0,0,0-8-.427l-.018-1.033-2.628.443a16.8,16.8,0,0,0-7.99-.426c-3.968-1.256-3.4.159-8.023-1.461l-2.494.394-8.15-1.41-2.425.4-2.9-.905-2.423.4-2.9-.9-2.621.443c-3.925-1.376-11.016-1.094-13.309-2.64l-2.423.4-2.9-.905-2.621.443c-4.6-1.611-11.8-1.089-15.983-2.557l-2.621.442c-4.156-1.455-10.561-2.193-15.954-3.228l-2.621.442c-2.417-.843-2.443-1.15-7.969-1.1-1.914-1.308-6-.8-7.987-2.13l-2.376.378-5.593-1.476-2.621.443c-4.194-1.47-10.014-2.4-15.531-3.632-1.772-.4-6.784-1.392-7.749-1.818-2.57-1.125-1.342-1.693-8.57-1.64l1.483-.7-6.689.211c-3.386-1.186-7.413-1.125-7.958-2.8l-2.431.4-2.891-.906-2.621.444a24.25,24.25,0,0,0-5.2-1.853,110.579,110.579,0,0,0-11.961-2.651c-4.187-1.466-16.553-2.784-17.216-4.866l-2.351.368-2.7-.465-1.575.327a41.558,41.558,0,0,0,10.692,2.374l-1.483.7c-7.382-1.023-13.128-3.434-20.146-5-5.682-1.266-17.7-3.246-19.534-5.215l-2.624.445L971.52,83.3l-2.621.443c-2.676-1.832-13.557-2.049-15.891-4.572l-2.625.444.048-1.007c5.713.587,2.432-.165,3.967.885,5.285-1.109-.193-1.2-3.291-2.066-3.514-.987-2.9-1.18-7.535-2.211-4.524-1-14.923-2.608-16.851-3.928-3.758.5-10.392-1.654-14.373-2.187l-1.99.46,7.043,1.005c1.179,1.439,2.752.512-1.4,1.383-2.369-1.622-17.725-3.688-22.466-5.348l4.061-1.129-4.013.122c-2.883-1.009-3.479-.36-3.99-1.917l-2.622.443c-2.238-1.531-4.611.008-5.313-2.213l-2.621.443c-2.89-1.011-8.8-1.485-10.634-2.721l-2.622.444c-5.631-1.972-10.225-2-16.911-3.249-6.207-1.157-13.427-1.976-17.59-3.437l-2.622.443c-1.775-.622-13.555-1.978-17.254-2.491l.406,1.179,4.9,1.035,2.626-.445c.631,2.195,3,.655,5.241,2.186l-4.013.123c-4.328.132-4.595-1.156-10.672-.346-3.389-1.186-29.548-4.309-34.1-3.828L767.3,49.978l-2.246.247-5.66-.567-7.821.379-5.551-.724c-3.384.453-7.041.693-9.348-.05l4.01-.122c-2.263-.718-7.182-.787-10.656-.682l-1.338.041a46.449,46.449,0,0,1-5.341-.061l-4,.051-5.552.087,2.8-.934,12.124.185c-3.832-1.214-3.671.009-9.34-.9l-7.993.083a59.591,59.591,0,0,1-7.993-.295l-18.752.774c2.31.744,5.968.5,9.353.051l-.032.671,2.674-.082c-1.593.614-.223.677-4.045.794l-12.035.466-10.595.24-1.553.729-2.388-.281L664.4,52.022l4.008-.01A97.374,97.374,0,0,1,681.831,50.6c6.1-.185,6.057-1,10.363-.835l5.752-.861,6.695-.337c2.287.8,1.318.854,6.645.8-1.595.614-.223.677-4.047.794l-4.01.122c-5.118.156-.5.119-4-.214-1.392.454,2.164.27-2.691.418l-3.723.132-1.667,1.356-6.568-.437-1.484.7c-7.311-.538-20.621,1.8-25.339,1.459l-1.481.7c-5.646-.416-17.441,2.919-20.312,4.331l-2.816-.329,4.077-1.357-1.379-.42-3.849,1.222-2.321-.227L621.2,60.178l-2.588-.285c-7.907,1.945-12.8,3.081-20.626,5.233-5.783,1.59-10.694,5.228-16.1,6.29l1.424.609c-3.7.446-3.084.577-5.666,1.537l1.541.934a16.588,16.588,0,0,0-1.648.56c-.388.016-1.1.077-2.4.234l-.119,1.037-2.587-.285c-.386,1.031-2.945,2.309-5.593,2.869l1.422.609c-1.814.386-6.784,2.221-6.815,2.888l-.014.335-.03.671c-3.873.762-4.921,1.358-5.477,2.847,5.989-1.179,8.3-3.949,16.289-5.522-.434,1.161-8.254,5.132-8.276,5.614l-.014.336c-.055,1.165-2.7.593-2.754,1.759l-.016.336c-.044.944-.609.639-2.723,1.088,1.758,1.044-2.193,2.025-2.845,3.773-5.685-.863-1.341.061-1.277-1.3l.014-.335c.058-1.283.416-.135-1.293-.967,2.234-.86,2.629-1,1.486-1.693l2.3-.449,1.75-2.048c-5.539,1.177.185.847-6.895,2.239l1.216.558-5.191,1.22-.033.671-.014.336-.03.671c-3.924.772-7.627,2.113-8.258,3.631l-2.587-.285-.048,1.007-3.938.113,1.218.975c-6.614.8-2.625,1.756-8.269,2.951l1.424.608c-2.1.413-4.037.567-4.077,1.465l-.048,1.007c8.226-1.619,9.58-4.867,16.435-6.215l-1.263-.565,4-.858-1.421-.61c6.8-.821,2.843-1.662,10.213-2.9l-11.675,5.626c2.09,1.24-3.576,4.023-7.669,4.936l-.726,1.715-2.588-.286c-.8.32-8.057,3.287-8.06,3.289-2.364,1.4-2.46,2.538-7.71,3.234l-.629,1.35-.085,1.682-5.109-.5-1.338.679,1.043,1.323c-8.482.824-1.257,1.16-10.783,2l-.119,1.036-2.587-.284-.03.67-2.676.082c.37-.993,8.35-3.553,10.814-4.343l-1.218-.975c9.189-.892,10.437-4.812,17.948-6.314l-4.257-.8c-3.852,1.534-11.466,3.534-12.361,5.766l-2.59-.286a41.977,41.977,0,0,1-10.941,3.033l1.421.609c-3.724.733-6.274,1.15-6.728,2.579l2.62-.443-.029.671c-2.83,1.127-4.387,1.161-6.825,2.547-2.052,1.168-1.773,1.954-6.773,2.559-.658,1.759-14.211,5.008-19.282,6.211-3.893.923-7.175,2.183-10.822,3.01-5.522,1.253-6.667.707-11.8,2.748l2.588.285c1.29-.9,4-1.336,6.753-1.839l5.143-.143,1.545.234-1.441.742-2.394-.251-2.989,1.085-2.4-.251-2.984,1.084-2.4-.25-2.915,1.053c5.5-.282,3-.426,8.044-.58,2.48-.075,5.558-.931,8.958-1.392,4.6-.623,6.833-.613,8.632-1.852l2.587.286c5.2-2.07,6.409-.922,10.885-2.706l2.59.286c5.917-2.356,12.571-2.4,19.005-4.964l2.588.285.048-1.006,2.676-.082.1-.7,2.588.286.119-1.038,2.287.219,7.069-1.815c-.909,2.426-10,2.261-10.979,4.718l-2.588-.285c-2.992,1.19-8.96,2.025-10.917,3.376l-2.331-.231-7.112,2.193-2.362-.24-4.374,1.45-2.587-.285c-3.167,1.261-2.1.822-6.648,1.57-6.275,1.031.674.5-5.535,1.816l.03-.67-2.6.072.949.878-10.586,2.132-2.59-.285c-3.181,1.167-11.433,1.673-16.233,2.868l-2.4-.251-2.914,1.053a17.511,17.511,0,0,0-8.131.946l-2.478-.271-1.554.73-2.475-.271-1.554.729-2.353-.18-5.6,1.025-5.134-.029-5.632,1.064c-5.647-.415-11.777,1.616-17.161,1.26l-3.071.758-3.9-.278c-1.593.613-.222.676-4.042.793l-1.329.119-7.847.308-8.234,1.071h-5.178l-4.206.638-4.029-.194c-3.839.59-1.1.181-5.372.489l-8.037.589-4,.164-5.25.135-1.467.571-22.744.484-9.369.4-9.361.172a30.347,30.347,0,0,1-5.367.5c-5.557.169-8.36.047-10.649-.564l-13.2.484-5.621-.427-3.73.369-4.188-.4c-.041.009-2.506.415-2.678.375l-5.121.085-5.523-.688-5.393.462c-5.639-.817-6.465.1-10.694-1.379l-2.379.325-5.621-.752-2.622.445a16.8,16.8,0,0,0-7.995-.427,16.828,16.828,0,0,0-8-.427c-2.277-.72-4.181-.771-9.32-.721l-.336,1.087-3.748-.992-2.621.443.03-.67-2.645.081.037-1.683-5.373.838-.04-.7-2.621.443-.023-1.033-2.622.443c-6.417-2.247-16.158-2.626-21.245-4.409l-2.622.443a25.683,25.683,0,0,0-10.609-1.688c-1.912-1.308-6.006-.8-7.989-2.13l-2.622.442c-1.805-.632-14.675-2.822-18.577-2.785l-.023-1.034-2.428.4-2.893-.906-2.622.443.048-1.007c-6.094-.171-4.794.077-5-1.26l3.749.992,2.5-.422,1.493.635,2.661-.463,5.282.527c-.675-2.333-5.862-.819-6.534-3.152l-4.016.122c-.583-.643-3.83-2.337-5.3-3.161-1.983-1.111-7.848-1.187-5.266-2.835l-3.747-.6,1.31-1.051c-4.647-.172-4.883-.161-5.064-1.579l4.878.859,1.337-.3-1.108-1.351-2.625.445-.021-1.034-2.621.443.078-1.678c-5.024-.3-7.564-1.715-12.032-2.332l1.483-.7,1.391.322,2.622-.443c.463,1.6,2.117,1.091,5.218,2.15l5.393-.462c-2.605-.912-5.06-1.1-7.647-1.849-3.059-.888-1.2-1.721-6.289-2.095l-.508-1.536-3.774.019,1.238-1.422,2.588.285c-.257-.889-13.969-5.967-16.75-7.269-4.851-2.269-12.213-5.212-14.395-7.812l1.131-.425c14.3.4,10.154,2.293,18.658,3.47l-1.41.666,2.7.3-1.273.635,5.1.907c-1.614,1,.569,2.239,5.34,2.535l-1.481.7c3.446.478,3.557.233,4,1.583l2.623-.444c.4,1.374,2.913,1.637,6.582,2.146-.306-1.06-9-4.277-11.922-4.681l1.481-.7c-7.629-1.057-7.864-4.007-14.581-4.936l.771-.584L6.268,97.624c1.626-1.009-1.321-2.039-3.875-2.9.022-.007,1.365-.666,1.37-.711.061-1.354.252-.153-1.307-.63.022-.008,1.366-.667,1.368-.712.036-.772-.886-1.7-2.509-2.264l2.733-1.766L2.5,86.615,5.589,85.9l-1.22-.559,5.195-1.22c-1.588-.556-2.65-.509-2.613-1.261l.016-.336c.027-.584,2.982-1.7,4.106-2.135-.29-.174-1.277-1.232-1.258-1.637l.014-.336c.06-1.283-.4-.11,1.385-1.048-1.472-.494-2.626-.978-2.583-1.931s-.551-.6-2.185-.94l-.4-.992c1.905-.374,7.172-1.894,8.106-1.923,3.064-.093,1.552.067,5.337.173,1.183,1.124.679,1.01,5.29,1.179-.759-.722-7.491-3.266-9.492-3.984-2.214-.795-5.487-3.539-7.262-4.5l1.341-.488,5.209.921-1.32.644,3.821.6c-3.24,2.007,4.577,1.447,5.248,3.555l2.625-.445c.419,1.459,4.01,2.577,7.985,3.126l-1.484.7c6.36.881,12.292,4.624,19.42,6.2,4.916,1.084,19.108,4.906,24.145,5.212-3.86-1.751-9.525-3.671-12.965-5.339-2.267-1.1-10.091-4.815-13.381-5.269l1.321-.644L46.058,72.6l1.481-.7c-5.668-.785-7.579-2.935-12.134-4.576-4.033-1.455-4.289-4.657-11.468-5.093-.47-1.627-3.308-1.339-6.309-2.42l9.2-2.358c2.415.845,4.233,1.664,6.571,2.369l4.01-.01c.543-1.457-.164-.6,2.754-1.759l2.2.093L50.9,56.473l8.043.009c4.483-.041,1,.008,3.832-.412l2.8.843,5.393-.462c5.732,2.006,5.6.641,10,3.846,1.233.9,9.442,3.269,12.394,3.18,5.116-.156.482.088,4.32-.539l-4.371-.818,1.481-.7c-5.015-.516-3.475-.376-6.391-1.424l1.132-.426c5.764.8,7.964,2.352,11.707,3.657l-1.186,1.325-4.957-.126L94.6,65.45c3.39.524,4.017,1.042,2.583,1.931,5.448.842-.26.86,6.71,1.824l-1.483.7c3.864.536,7.453,1.654,7.944,3.138l2.622-.442c.378,1.323.488,1.078,4.049,1.569l-1.32.644,3.933.617-1.483.7c7.517,1.042,3.046,1.653,10.678,2.709l-1.481.7c8.1,1.121,5.108,2.162,13.208,3.283l-1.37.712c3.73.226,6.889,1.124,7.918,2.1l2.678-.081-.339.757,6.628,1.378,1.691-1.372a138.441,138.441,0,0,1,13.589,2.847c4.854,1.184,8.819,1.98,13.854,3.1,2.706.6,10.937,2.639,13.227,2.949,5.558.753,12.712,1.313,14.974,2.84l2.37-.379,5.6,1.476L224,98.707c4.665,1.633,7.631,1.084,10.664,2.049l2.622-.443c1.344.283,2.692.583,3.967.885l.046-1.007c5.717.587,2.434-.165,4.037.911l2.621-.443c3.735,1.184,19.375,2.449,21.238,3.039a19.615,19.615,0,0,1,8.028.266l8-.083a23.879,23.879,0,0,1,5.429.233l3.937-.518c6.058.786,21.792.678,25.359.57l9.366-.286c3.768-.113,2.486-.22,3.786-.633l-9.059-.882a45.862,45.862,0,0,1-13.389-.961l-2.621.443c-3.966-1.255-3.4.159-8.022-1.46l-2.37.378-5.594-1.475-2.622.442c-1.567-1.073-2.172-.428-5.343-1.541l-2.621.442c-2.736-1.871-20.062-2.685-21.128-5.388,4.579.168,6.208.475,6.667,1.837l2.62-.444.024,1.034,2.425-.4,2.9.906,2.624-.444c2.559,1.752,11.918,1.814,15.953,3.229l2.621-.443c4.354,1.525,11.055,1.183,17.593,2.066,7.132.961,14.512.857,19.614,1.748l7.874-.454,2.878.907,6.755-1.269,2.587.285c3.6-1.321,5.052-.648,9.752-1.555,2.476-.476,5.758-1.208,8.625-1.805,7.109-1.484,9.5-2.848,14.031-4.625l5.365.135c.36-.96,4.723-2.429,7.308-3.457,2.879-1.145,5.171-2.605,9.029-3.072.378-1.01,15.655-9.131,17.929-9.61l-1.425-.608c5.122-1.089,4.684-3.279,9.67-4.334l-.624-.534,8.84-4.753,2.59.285c-2.484.989-4.408,1.467-2.787,2.431-3.362.662-5.41,1.466-5.474,2.847-.024.53-3.462,2.785,1.215,2.643a14.679,14.679,0,0,0,9-3.418c2.115-1.577,6.725-2.359,7.383-4.118,7.588-.916,8.036-5.009,15.112-6.509l-1.421-.609c5.288-.639.148-.056,5.512-1.191l-1.191-.553,6.639-1.622-1.424-.609c8.41-1.655,12.968-5.76,20.464-6.672l-1.422-.61c5.332-.273,4.369-.268,6.808-1.241l2.362.241,4.373-1.451,2.59.285c1.34-.534,14.3-5.342,15.066-5.5l-1.424-.608c4.435-.873,6.93-2.925,11.2-4.284,4.416-1.405,9.555-2.369,13.2-3.812l4.029.195c2.315-.456,12.276-2.61,13.486-2.757l.12-1.037,2.59.284c1.563-1.1,5.7-1.624,8.208-2.623l2.587.285c.816-2.176,5.884-1.663,8.241-3.294l2.588.284c4.978-1.981,8.538-1.445,13.591-3.458l2.59.285c4.969-1.977,12.012-2.37,13.592-3.457l2.353.18,5.7-1.1,2.59.285a19.016,19.016,0,0,1,9.3-1.305l1.481-.7a22.286,22.286,0,0,0,10.839-1.7l2.4.25,2.91-.941,4.021-.235c3.018-.091-.614-.11,2.661.255,1.392-.454-2.167-.27,2.691-.417,5.114-.156.491-.118,3.884.2l1.483-.7c3.757.277,1.434.507,4.028-.457l-6.689.2c4.06-1.491,11.119-1.149,16.134-2.167L690.4,9.14l4.1.221,2.692-.474,2.59.284a21.062,21.062,0,0,1,5.381-.834l12.045-.489,15.94-.379,1.451-.625,9.382-.023L748,6.7c5.117-.156.482.088,3.916-.437l1.427.5,3.817-.139,5.574-.705a40.719,40.719,0,0,0,7.995.427l1.341-.041c3.388-.1,10.9.38,12.979.467l4.4-.661c1.621,1.108,1.292.422,5.264,1.144l5.28-.442,1.491.636,2.508-.422,1.395.572,5.393-.462a4.023,4.023,0,0,0,2.647.59c3-.092,2.949-.354,5.827-.848l-.22.945,2.346.629,5.4-.462a16.81,16.81,0,0,0,7.995.427c4.125,1.444,5.859.767,10.756.959,5.383.211,9.326.843,13.237.321,2.35.824,6.45,1.1,7.917,2.105l-6.919.262,4.181,1.161c-6.611.064-5.675-.832-14.67-.559l-1.336.041c-5.117.156-.493.118-3.779-.164l-1.771.373,2.9.905,2.622-.443-.046,1.007,2.676-.081.037.7,2.186-.277,11.1,1.883,2.429-.4,2.893.9,2.622-.443c2.005,1.371,8.672,1.863,11.957,3.015l2.62-.443c1.847,1.264.2.03,3.953,1.22l-2.676.081c1.11.939-.611.673,2.661.255l-.046,1.007a31.866,31.866,0,0,1-9.328-2.09l-2.621.442c-1.282-.876.1-.691-5.308-.843L873,17.945l-2.5.424L869,17.732l-2.508.423L865,17.518l-2.425.4-2.9-.905-2.425.4-2.9-.905-2.62.443c-3.9-1.365-8.2-.849-13.309-2.639l-2.622.442c-3.963-1.255-3.4.16-8.02-1.459l-2.622.443c-3.961-1.256-3.4.158-8-1.291l-5.3.02-1.339.04c-5.114.157-.481-.088-4.082.467l3.974,1.883-2.675.081c-4.588-.472-12.888-1.406-17.136-.859l-2.8-.843-5.4.462c-2.286-.8-1.318-.853-6.757-.782l1.421.61-3.779.131,1.237-1.422,2.59.285c-.574-1.452-.976-.556-3.7-1.842l1.205-.456,2.587.286,2.677-.082c-1.825-.578-11.1-1-15.992-.853-2.6.078-14.42-.213-17.331-.475L744.088,10.4l10.4,1.32,6.636-.057c-4.208,1.563.065.332-5.367.5a40.707,40.707,0,0,1-8-.427c-5.583.745-9.7-.282-13.411,1.079,8.338-.254,8.552.372,14.67.323l10.719-.426c1.045.993,2.682,1.024,5.342,1.541l2.622-.443c4.788.908,13.637,1.128,16.018,1.886l2.624-.443c3.431.65,9.2,1.484,13.315.934,2.113,1.447,8.194.981,13.34,1.969l2.624-.445c1.532,1.051-1.747.3,3.967.885,2.915-1.161,2.208-.3,2.636-1.664l9.452.291.017-.336c-8.42.256-5.332-1.29-15.978-1.189,2.687-1,2.563-.611,6.686-.2,4.013.395,5.4.286,8.038,1.125l2.509-.422,1.49.636,2.622-.443c2.96.939,9.768.847,11.917,2.319,5.615-.055,13.047.831,14.679,1.927l2.246-.222,11.07,1.158,2.621-.444c4.353,1.524,17.47,1.846,21.308,3.066l2.622-.443c4.33,1.518,19.653,2.15,23.854,3.594l5.395-.462c.994.347,11.638,2.179,13.369,2.291l-1.174.612,6.3,1.56,5.352-.163c1.942,1.329,11.435,1.986,15.938,3.565l2.622-.443-.046,1.007c5.715.161,19.444,2.852,21.261,4.073l2.622-.443c2.77,1.9,7.247.558,7.958,2.8l2.621-.443c4.52,1.583,6.052,1.335,10.6,3.393l2.622-.444c1.873.655,10.472,2.776,19.712,4.9,10.751,2.473,22.371,4.949,25.254,5.123l-.051,1.006c5.3.322,17.716,4.239,25.257,5.282l-1.214.622,2.446.692,2.621-.443c.666,2.31,4.547.547,5.212,2.857,8.535-.081,2.236.865,10.71,2.038l-1.484.7c3.667.508,6.187.77,6.649,2.171l2.621-.443-.043,1.007c6.859.193,17.359,4.188,25.257,5.281l-1.483.7,2.676-.082.04.7,2.621-.443.018,1.033,2.6-.443-.05,1.678c-6.174.059-11.895-1.339-13.239-2.613l-4.013.122.058-1.342c-3.711-.515-14.43-2.558-15.871-3.539l-4.122.109,1.483-.7c-7.79-1.079-17.643-3.749-24.8-5.362a30.949,30.949,0,0,0-6.844-1.079c-2.762-.282-4.146-.955-6.791-1.425-7.016-1.247-4.7-2.708-13.38-2.581l3.07.9-1.345.949,3.746.992,2.425-.425,1.446,1.955,2.69-.417c2.609.915,6.058,1.217,3.89,2.562,2.7.374,10.185,3.339,10.278,4.435l-5.534-.851,3.006,2.211c3.749.226,4.917.672,5.313,1.808l5.281.214L1098.9,75.1l1.338-.041.043-1.007,1.338-.041-.052,1.007c5.787-1.212,1.346-.02,1.4-1.383l.051-1.007,1.338-.04.018,1.034,2.628-.445a13.571,13.571,0,0,1,3.647,1.833l-2.132.725,20.87,4.468c5.042,1.766,13.017,2.711,20.142,4.006,3.015.547,7.389,1.85,9.967,2.2,6,.814,6.408.344,11,1.955l2.621-.443c2.3,1.574,10.911,1.709,13.279,3.31l2.4-.381,1.545.233.029-.671a26.541,26.541,0,0,1-9.052-1.68l1.443-.511,6.278,1.541,4.058-.439c3.441.477,3.554.233,3.991,1.513l5.279.215,2.7.953,2.621-.443c2.3.806,17.38,3.519,21.284,4.106l3.579-.347,12.373,1.5,2.432-.4,2.89.906,2.621-.443c4.163,1.456,9.622.785,13.275,1.942,3.372-.45,13.352.017,16,.853l2.418-.275,1.053.236-.555.554,2.439.691,2.621-.442a49.324,49.324,0,0,0,13.347.264,61.449,61.449,0,0,0,9.336.385l1.338-.041c4.616-.14,5.2-.4,9.386-.62-1.515-.9-2.182-.3,1.617-1.064l1.022,1.124,6.522-.14,5.568-.7a32.036,32.036,0,0,0-6.6-1.068l-9.406.549c-1-.09-7.882-.765-7.983-.763-5.234.16-.171.512-8.25.882l2.92-1.055-4.013.123c-3.747.114-7.156-.173-11.906-.363-4.25-.169-7.8.54-10.01-1.032l-.767.744c-3.384.032-7.841-.426-10.853-.716l2.918-1.165-3.82.187-2.9-.905-2.621.443a16.816,16.816,0,0,0-7.722-.5l-8.263-2.057-2.423.4-2.9-.906-2.62.444-.027-1.033-2.423.4-2.9-.905-2.367.377-5.593-1.475-2.621.443c-2.286-.8-1.323-.854-6.2-.817l-.782,1.1-3.746-.992-2.621.442a81.667,81.667,0,0,0-8.605-1.914c-4.5-.989-6.948-.833-10-1.9l-2.621.443-.026-1.033-2.36.373-6.7-1.833,6.492.562.036-.671a33.709,33.709,0,0,1-10.6-2.024l4.022-.121c1.533,1.049-1.747.3,3.961.884l.336-1.087,3.748.992,2.628-.445c1.973,1.353,8.583,1.342,10.625,2.721l2.376-.378,5.593,1.476,2.621-.443.026,1.033,2.621-.442c3.117,1.089,13.117,1.644,15.983,2.557l2.432-.4,2.89.906,2.628-.443c7.192,1.363,20.757,1.861,29.3,3.493l2.621-.443c2.747.96,9.335,1.467,13.32.934,14.259,2.7,32.867,1.124,39.943,2.434l5.395-.462a43.683,43.683,0,0,0,9.335.385l1.32-.005,9.179-.155,8.438-.711-2.925,1.14,21.4-.4c3.065-1.123-.829-.515,5.389-.834,1.667-1.171,2.219-.563,5.5-1.872l2.59.286.115-1.038,2.59.285.115-1.037,2.59.285.122-1.038,2.59.285c1.37-.964,1.966-.826,5.409-1.5l2.676-.082c-3.1,1.137-6.141,1.1-6.812,2.889l-2.675.081-.1.7-2.59-.284c-2.385,1.671-4.621.272-5.259,2.562l5.193-1.219-.157,1.282-3.928.518c4.222,1.361.712.314,4,.214,5.4-.164.582-.08,2.652.254.032-.006,2.519-.411,2.7-.417,5.115-.156.488-.118,3.881.2l1.484-.7c3.154.233,9.534-.435,12.162-1.4l2.589.285c5.7-2.27,9.119-2.053,14.534-3.538a120.094,120.094,0,0,0,12.513-4.278l6.993.151,3.851-1.222,2.589.285.115-1.038,2.588.285c.558-1.488,4.263-2.827,8.155-3.6l.216,1.736,2.513-.842,2.588.285c2.724-1.91,1.7.459,2.688-1.786l-2.472.442-.048-2.347c-4.783.942-2.97,1.3-9.422,1.627,2.936-1.587,5.128-2.42,7.972-3.873l-1.1-.357a88.409,88.409,0,0,0-9.573,3.336l-2.59-.285c1.285-1.357,1.537-1.407,5.564-2.2l-.947-.521,5.007-1.972,4.691.118,4.668-1.366-.051,1.006,4.064-1.129c-.664-.731-1.3-.73-1.266-1.637.063-1.283.421-.135-.953-.934l3.745-1.5c-.7,1.847-3.059.982.721,1.576l4.9-2.105-1.545-.935c2.277-.461,2.677-.13,2.726-1.088.073-1.7,4.838-2.591,2.911-3.746l2.621-.443c-1.714-1.019.182-1.694,4.13-2.471l-.052,1.006c6.458-1.371,4.514-4.658,11.081-6.051l-1.349-.583,2.62-.443c-2.5-1.482,8.795-4.824,13.632-5.777l.029-.67.015-.336c.049-.946.606-.639,2.726-1.089.232-1.758,4.539-3.455,2.948-4.416l2.621-.444c-2.317-1.371,5.2-3.752,2.977-5.088l2.55-.434-1.224-.975c2.5-1,4.4-1.928,7.071-2.92l-1.547-.934c1.658-.394,1.314.506,1.367-.711l.023-.336c.041-.945.606-.64,2.569-1.077l-.789-1.281,3.736-1.5c-1.516-.9-2.183-.3,1.53-1.059l1.132,1.313c-1.229.242-4.037.668-4.056,1.128-.048.945.543.6,2.177.94l.334.966-1.987.431-.728,2.027-.178.337.1,1.34-2.676.082-.135,1.315-2.62.443c1.128.669-.766,3.086-3.4,3.825l-2.377,4.028-2.057.437-.629,1.35-.043,1.007c-.048.945-.6.638-2.726,1.088,1.547.915-2.806,2.959-2.856,4.107l-.023.336c-.041.945-.606.64-2.837,1.11l1.358.582-2.549.434.871.962-2.454,2.779,1.338-.041c.082-1.74,10.611-7.676,8.433-8.969,2.27-.462,2.677-.129,2.719-1.087l.051-1.007c.041-.944.606-.639,2.719-1.089-1.348-.8,1.851-3.405,4.962-4.183l.658-1.684c4.239.645,1.3.717,1.244,1.973-.044.86-.364.821-1.655,1.415l1.547.934c-2.7.547-2.021.1-2.735,1.088l-2.885,4.779-.014.335c-.042.977-2.2,3.813-5.555,4.526,1.355.8.683,1.362-2.769,2.094,1.21.719.822.859-1.089,1.7l.922,1.989c3.948-.777,5.837-1.452,4.123-2.47,2.27-.463,2.678-.13,2.727-1.089.056-1.312,2.77-2.289,2.827-3.437.082-1.7,4.838-2.591,2.919-3.746l2.05-.436.629-1.35.216-1.008.336-1.294,3.189-1.5.491-1.02c.063-1.283.419-.135-1.218-.94l2.05-.437.629-1.349.022-.336c.049-1.148,2.771-2.124,2.827-3.437.027-.624,1.456-2.041,3.051-2.8l-1.538-.935c1.658-.394,1.307.507,1.366-.711l.014-.336c.041-.944.606-.639,2.157-1.081l.627-1.348c.778-2.273,2.987-4.017,9.6-5.319l.029-.671.022-.336c.041-.944.606-.639,2.838-1.108l-1.419-.61c3.445-.733,4.118-1.29,2.831-2.068l2.621-.443c-2.278-1.352,5.156-3.092,2.887-4.444,2.27-.461,2.669-.129,2.719-1.088.054-1.257,2.322-1.672,2.976-3.1l.056-1.3,3.887-.836c-1.225-.729,8.682-9.29,12.489-10.1-1.538-.913,1.514-2.125,4.159-3.142l1.439.306-4.209,1.788c1.348.8-1.85,3.406-5.47,4.18l1.224.976c-.959.5-1.369.6-1.4,1.383-.041.944-.605.639-2.578,1.076l1.13,1.314c-2.232.86-2.629,1-1.486,1.692l-2.621.443c2.378,1.41-1.328.556,5.279,1.514l2.8-.437-1.35-.583,2.175-.43.5-1.02-2.674.081.287-2.686.141-1.282L1611.4.533l.029-.671.187-.338.515-1.272,4.81-1.91c-1.4-.832,4.593-4.167,8.361-4.963l-1.358-.581,2.739-.465-1.349-.583,2.739-.465-1.358-.582,2.739-.464-1.419-.611c5.484-1.08,16.041-7.3,20.186-9.4,4.128-2.082,18.352-7.466,24.665-8.714l-1.51-1.04,5.82-1.461-1.419-.609c5.076-.824,3.518-.588,6.841-1.912l2.59.285c.626-1.685,4.658-1.869,8.235-3.295l2.59.285,1.309.63-2.675.081-.109.7-2.588-.285c-2.385,1.671-4.621.273-5.159,2.579l6.735-2.023,2.642.723,2.512-.841,2.588.285c5.214-2.074,15.406-2.317,18.875-3.59l-2.676.082.029-.672c6.216-.319,2.324.289,5.458-.864l2.589.285c4.041-1.484,7.2-.7,13.939-1.637,7.624-1.061,5.569-1.247,15.6-1.607l.109-.7,2.22.112,5.762-1c.048.009,2.465.269,2.654.252l9.5-.639-1.431-.495,18.74-.684,1.338-.04c3.763-.114,2.487-.221,3.977-.733l5.4.111.036-.671c2.99.084,3.06.242,6.674.133,3.544-.108,7.267.172,12.274.364l2.436-.678,6.694-.338c5.116-.155.49-.117,3.782.165l1.569-.327c-3.176-1.022-9.043.078-13.367-1.3l-2.51.423-1.4-.573-5.02.266-5.7-.482-10.688.16-1.336.041c-5.117.156-.49.117-3.883-.2l-1.448.615-8.046-.008c-4.714.043-1.475.151-2.69.417-.032-.005-2.481-.26-2.661-.255-6.22.189-9.129.451-14.394.607-3.458.1-14.992,1.244-17.511,1.15l-6.781,1.054-2.821-.879c11.831-.607,21.514-2.109,32.3-2.677l-1.427-.608,4.129-.108-1.483.7,4.131-.144-1.386-.64,9.1.289,5.308-.63,2.916.514.037-.872,6.584-.317,1.4.6,6.472-.785,3.006.574,3.827-.5,1.425.475,6.681-.07c1.718-.052,2.327-.059,2.518-.057-.08-.01-.023-.048,1.336-.18l10.846.125c-1.54-.517-.158-.665-3.976-.548-5.617.171-2.819.11-4-.213l1.347-.265,4.018-.233c5.636.818,6.466-.106,10.633,1.239l3.722-.073,4.789-1.08-.489,1.02c6.207-.059,2.355-.43,5.293.472l5.2-.416,2.8.843,5.147-.342,5.617.75,2.431-.4,2.891.9,2.251-.237,11.068,1.173,2.628-.443c.989.2,1.621.3,2.01.345.01.1.161.271.613.58l5.351-.163c-2.544,1.937.922-.722-4.062,1.24l3.82-.187,2.9.905,2.621-.443c2.12.673,21.682,1.948,26.658,2.9l2.423-.4,2.8.842,5.395-.462c1.291.882,1.893.707,5.293,1.179l2.675-.081-.439-.508-4.615-.958,1.128-.425c5.01.516,9.354,1.252,15.981,1.189-6.168-1.167-36.626-3.452-39.947-4.511l-2.621.444c-4.548-1.592-3.984-.178-8.016-1.46l-2.431.4-2.89-.906-2.432.4-2.891-.906-2.621.443a16.837,16.837,0,0,0-7.713-.507l-4.346-.864-3.739.471-2.828-.878c-5.682.758-7.681-.687-13.363.071-2.475-.783-8.805-1.066-12-.641-4.1-1.3-13.341-.439-19.978-1.4-3.569.476-21.8-.008-26.726.143l-4.013.122c-5.4.164-.576-.045-2.69.416-.03,0-2.481-.259-2.661-.254-5.116.156-.488-.088-4.028.457.019-.448.46-.349-1.323-.295-1.906.057-2.458.06-2.578.059.1,0,.35.035-1.3.209l-4.149-.024.014-.336,6.674-.232,10.731-.633,3.995-.067,13.381-.127,1.333.073,13.188-.381,5.3.319,1.688-.348-1.419-.611c5.142-.048,7.047,0,9.321.723a17.874,17.874,0,0,1,7.969.346l8.068-.5a16.691,16.691,0,0,0,7.887.448l1.421.61a19.054,19.054,0,0,1,6.646.051l7.872-.453,2.9.9,2.5-.421,1.5.634,2.511-.422,1.488.636,2.423-.4,2.83.878a16.8,16.8,0,0,1,8.067.453l2.621-.443c3.483,1.1,12.283.7,16.012,1.887l2.63-.444c1.028.2,1.663.305,2.05.349.006.1.159.276.643.6l2.621-.443a16.724,16.724,0,0,0,7.8.473l2.9.905,2.144-.255,8.5,1.272,2.621-.443c2.913,1.994,25.32,3.461,29.238,4.836l2.216-.3,5.935.787-2.928.667,2.676-.081-.036.671,5.36-.164-.038.672c6.214-.06,2.362-.432,5.391.535l2.376-.378,5.593,1.475,2.621-.443.026,1.033,2.621-.442c3.1,1.086,3.707.441,5.339,1.541l2.432-.4,2.89.907,2.432-.4,2.89.906,2.621-.442c1.533,1.05-1.748.3,4.164.919l-2.92,1.054c5.717.587,2.437-.165,4.039.911l2.367-.377,5.6,1.476,2.183-.278,11.1,1.884,2.628-.445c2.348.824,6.446,1.1,7.987,2.132l2.621-.443c3.494,1.223,10.933,1.035,13.308,2.638l2.342-.293,10.924.867c.393,1.379,3.253,1.933,7.918,2.105l-.1.6ZM1041.947,63.1l1.395-.043-1.38-.307-1.267-.282-.031.671Zm.219-5.085c-1.11-.276-2.432-.486-3.9-.835.287,1,1.7,1.412,3.856,1.757.809.13,1.727.25,2.721.388A5.147,5.147,0,0,0,1042.166,58.01Z" transform="translate(149.794 -51.595)" fill="#193665" fill-rule="evenodd"/>
      <path id="Caminho_128" data-name="Caminho 128" d="M0,.106c-.075-.315,1.27.158,0,0Z" transform="translate(1869.083 -40.946)" fill="#193665" fill-rule="evenodd"/>
      <path id="Caminho_129" data-name="Caminho 129" d="M52.633,5.719c-4.828-.146-5.511-.541-9.023-.061-.379-.137-6.367-1.884-6.428-.474l-2.874.69L11.327,6.5-.3,6.995C1.953,6.139,6.72,5.776,10.073,5.674l1.3-.04c4.681-.142,1.25.039,2.6-.414l3.758.283c3.776-.632,4.894-.866,7.864-.637L28.4,3.816l3.682-.041,3.565.568,1.559-1.177-21.877.5-4.055-.229-2.335.293L6.376,3.412c-3.732.533-1.5.625-3.928-.188l7.825-.459,2.436.176c2.117-.489-2.537-.286,2.673-.445l5.165-.156,2.583-.079,4.084.439,8.809-.2-1.378-.571,3.988-.139c2.893-.089,2.821.179,5.129.514l1.1-.424C42.453.975,41.47.688,36.107.526L40.264-.889l2.6.472c3.164-.467-1.311-.228,3.62-.379.182,0,2.546.253,2.568.258l2.82-1.051c.512.019,4.692.151,6.255.1l1.291-.039c3.693-.113,2.359.033,3.845.552,3.426-.542-1.05-.3,3.888-.454.5-.015,24.221.748,25.753.893l2.813-1.05c8.626.915,4.687-.092,8.751,2.039l5.015-1.215,1.257.41-2.6.988A145.515,145.515,0,0,1,125,2.513l2.53-.441,10.688,1.169,2.167-.22,10.688,1.169,2.167-.221c4.088,1.354,5.517-.112,7.734,1.47l5.172-.157-.036.67,2.53-.441c.962.212,1.576.324,1.96.377.038.1.215.28.646.577,5.991-.052,2.274-.428,5.136.514l2.53-.441c4.454,1.624,3.921.209,7.742,1.469l2.53-.441c3.9,1.422,2.861.623,8.932,1.124,3.043.251,4.53.942,7.783,1.412-1.915,1.228.863.979,6.4,1.145l-.036.671L209.684,12l-2.814-.518c-1.446.239-1.328.3-1.183.317-.137,0-.453,0-1.154.022-.174.005-2.539-.252-2.568-.257l-1.32.711,1.376.61,5.051-.136-.029.671a47.048,47.048,0,0,1,10.264,1.028l2.538-.441c4.165,1.522,5.44.3,10.289,2.061l-2.583.079-4.1-.809-2.256.361a45.972,45.972,0,0,0-9.048-1.094,74.24,74.24,0,0,1-14.123-1.246l-2.531.441-2.8-.908-2.34.394-2.8-.909-2.34.395c-3.427-1.133-11.928-.74-15.461-1.9l-2.531.442c-2.252-.748-7-.822-10.352-.72-.175.005-2.574.408-2.6.415l-1.369-.61-2.424.419-2.361-.694-3.073,1.125-3.926-.773c-5.2.67-7.132-.777-12.616-.024-4.454-1.468-2.627.38-5.107-1.185l5.08.253c-1.216-1.347-11.977-1.743-15.344-1.281a15.685,15.685,0,0,0-7.719-.436l-5.361-.731-2.291.322c-2.61-.865-12.242-1.345-15.5-.9l-5.353-.73L71.931,6.1c-1.43-.445-.177-.628-3.817-.517l-1.291.04L64.24,5.7l-3.548-.969L57.6,5.863l-4.729-.878Z" transform="translate(1805.376 -16.469)" fill="#193665" fill-rule="evenodd"/>
      <path id="Caminho_130" data-name="Caminho 130" d="M0,.114c-.125-.341,1.313.18,0,0Z" transform="translate(1975.975 -10.694)" fill="#193665" fill-rule="evenodd"/>
      <path id="Caminho_131" data-name="Caminho 131" d="M2.23,42.464l2.5.288c3.542-1.345,20.39-3.485,23.551-5.772l2.5.288.1-.7,2.583-.078.05-1.007,2.5.288.112-1.038a27.857,27.857,0,0,0,7.841-2.249l2.5.288.112-1.037c4.247-.526.918.406,3.924-1.125L53,30.9l7.613-2.347-1.079-.543c5.679-.711,2.376-1.245,7.942-1.935.215-.6,7.887-4.2,9.241-4.637-1.461-.9,3.661-3.239,6.631-3.888l-1.376-.611c6.984-1.414,5.843-2.044,9.319-3.986l-1.172-.977,1.455-1.033,2.31.284c-.5-1.529.454-.559-3.726-1.591l2.358-.808L91.4,8.272l3.86-.855c-.511,1.889-2.8,1.022,1.368,1.683l.043-1.007c.039-.753,1.059-.768,2.647-1.421l-.9-2.325,3.473-.818c-1.253-.823-1.111-.811,4.074-1.08L104.6,1.839l2.979-.711-4.135.058,1.635-1.371,2.038.12,1.046-.3-.752-.581c6.259-1.369.257-1.419,5.273-2.505l.888,1.99-2.221.424,2.664.854c-3.327.733-6.874,2.721-5.507,3.56l-4.067,1.785,3.986-.107-.079,1.678C104.264,7.239,97.6,10.44,99.1,11.37c-5.352,1.171.174.846-6.552,2.21l1.369.611-2.636.461,1.3.584-3.86.854c2.225,1.425-11.916,7.759-17.333,8.857l1.376.61-2.979.711,4.123.053-.046.9-2.584.079c-2.28,2.2-12.239,2.65-13.129,5.09l-2.5-.288L49.341,34.07l1.222,1.209-5.494-.091L34.389,38.4l-3.49-.221c-5.73,1.005-4.735.844-9.5,1.954-5.058,1.179-6.613-.2-4.961,1.9-4.263.424-8.167,1.07-10.41,1.991l-2.5-.288-2.426.84-2.984-.942C3.9,42.656.651,43.608,2.23,42.464Z" transform="translate(1467.153 86.614)" fill="#193665" fill-rule="evenodd"/>
      <path id="Caminho_132" data-name="Caminho 132" d="M103.153-1.777l-2.609.494,1.114.928-3.806.108C92.37-.08,84.091,2.7,77.069,3.066l-.05,1.007-6.507.856,1.536,1.286c-8.391.45-34.336,8.751-31.714,10.366l-7.588,1.972,1.13.552c-.661.143-11.326,4.512-11.8,4.768-2.888,1.568-4.43,3.934-9.4,4.942l1.376.611c-4.648.583-6.872,1.955-5.4,2.862L1.439,35.616c.521.708,1.77.236-2,.639l-.9-2.328c1.877-.839,2.259-.978,1.091-1.7l2.53-.441c-1.872-1.169,2.116-1.127.176-2.322l7.208-3.328-.693-.54,3.86-.854L11.5,24.178l3.859-.854-1.219-.567c6.085-1.233,3.673-2.135,8.953-3.733,4.959-1.5,5.459-2.227,9.878-3.474,3.916-1.105,6.432-2.249,9.848-3.479,3.516-1.267,8.832-1.75,9.489-3.562l2.5.288C57.827,7.557,67.03,4.509,73.145,4.191,74.718,2.683,79.551,2.527,83.62.857l2.5.287C90.656-.723,94.5-.013,96.626-1.55l2.5.288,2.882-1.081,2.1.159,3.926-1.124,1.331.423-3.934,1.351Z" transform="translate(1628.742 -41.351)" fill="#193665" fill-rule="evenodd"/>
      <path id="Caminho_133" data-name="Caminho 133" d="M11.461,3.385l7.788-.491,4.021.325,6.267-.184,5.218-.675,1.339.593,2.759-.669c3.133.276-1.332.309,3.605.158,1.722-.052,1.287.073,1.306-.374,3.386.335-1.08.367,3.859.217,1.722-.053,1.286.073,1.306-.375,3.386.336-1.08.368,3.859.218,2.831-.087,3.283-.919,6.442.139l-3.874.119c-3.73.113-5.006.3-6.485.868l1.491.233c3.378-.507-1.409-.2,3.674-.391L64.37,2.88a18.239,18.239,0,0,1,2.565.157c1.51-.571.27-.678,3.91-.789l3.874-.118,5.126-.3a18.657,18.657,0,0,1,7.816-.767A45.194,45.194,0,0,1,100.639-.669l2.813-1.05,4.995.106,2.789-1.012,2.312.252,3.717-1.218,5.39.05v.864l5.115-.564c-3.884,1.567-3.211.115-7.755,1.984l-2.5-.288a16.388,16.388,0,0,1-7.853.938A16.341,16.341,0,0,1,101.887.3L91.13,2.092,86.3,2.407a43.1,43.1,0,0,0-7.77.947l-7.76.158-1.281.116c-3.692.113-2.367.178-3.91.79L55.244,4.5l-1.414.592-6.321-.138L43.7,5.481,40.8,4.9c-3.165.468,1.3.229-3.629.378-1.722.053-1.3.152-1.277-.295l-5.115.564.739-.7-.827-.238-5.139.266a16.752,16.752,0,0,0-7.693-.349l-2.73-.881L10.138,3.8,3.7,3.956l-2.583.078L-.146,3.4l2.582-.078C2.685,3.344,10.463,3.438,11.461,3.385Z" transform="translate(1333.065 134.519)" fill="#193665" fill-rule="evenodd"/>
      <path id="Caminho_134" data-name="Caminho 134" d="M63.195.751c-1.489.563-1.2-.652-1.253.7l-.014.334-.608,1.349-1.988.435.034,1.313-.18.338c-.041.953-5.094,2.689-7.885,3.256,1.506.931,1.037,1.842-5.26,2.17l-3.112,2.4-2.078-.258c-.727,1.834-10.564,5.22-15.818,5.871-.89,2.465-5.922,1.464-10.467,3.334l-5.182-.14L6.594,22.866l-2.312-.253L4.17,23.651l-5.182-.14a110.039,110.039,0,0,1,19.6-4.989c.625-1.725,3.386-1.561,6.879-2.812,3.813-1.362,2.2-2.013,8.841-2.357l.043-1.007C40.408,12.03,46.467,8.987,44.873,8l2.53-.441c.256-1.39,3.55-3.837,6.725-4.532L52.866,2.4c4.119-.9,5.55-2.931,7.936-4.262l3.685.606-2.653,1Z" transform="translate(1429.411 68.653)" fill="#193665" fill-rule="evenodd"/>
      <path id="Caminho_135" data-name="Caminho 135" d="M.46.133c-1.393.085.876-.377,0,0Z" transform="translate(1719.464 -2.152)" fill="#193665" fill-rule="evenodd"/>
      <path id="Caminho_136" data-name="Caminho 136" d="M4.777,25.006c-1.442-1.206,7.241-4.079,7.3-5.177l.014-.336c.03-.7,6.654-3.779,9.226-4.3l-1.376-.61c2.992-.651,11.895-5.654,10.726-6.376,4.291-.87,3.946-1.432,7.827-1.913.436-1.2,1.606-1.718,5.26-2.171.58-1.6,11.352-4.285,15.712-5.169l2.582-.078,2.73.881L60.7.033,57.892.972,55.58.718c-3.194,1.315-4.745.9-5.344,2.537l-2.5-.289c-.454,1.092-7.857,3.819-10.588,4.372l.752.58-1.046.3-2.317-.131c-.6,1.663-4.732,2.186-5.338,3.848.9-.27,1.385-.441,1.632-.547.4-.024,1.1-.094,2.278-.242.471-1.3,3.974-2.437,7.87-2.92l.043-1.007c4.055-.5,11.8-3.015,14.676-4.056C59.186,1.9,67.989.1,68.5-1.322l8.913-1.049L75.943-.9l-2.221-.276c-1.5,1.071-3.24,1.343-6.6,1.9l1.376.61C61.963,1.7,61.67,2.715,56.664,3.73l1.369.61c-3.677.464-3.08.594-5.337,1.521l-2.5-.288C47.31,6.76,48,5.9,47.466,7.36c-5.824.722-7.643,2.716-12.117,3.969-2.893.809-8.476,3.5-8.913,4.712l-2.5-.288-.1.7-2.59.078,1.376.611c-7.668,1.553-1.6,2.2-10.618,4.026l1.514,1.276c-5.39.66-.426.082-5.5,1.192,1.66,1.021-.17,1.694-3.982,2.466,1.6.984-.841,1.143-1.415,2.724l-3.869.006Z" transform="translate(1675.696 -12.999)" fill="#193665" fill-rule="evenodd"/>
      <path id="Caminho_137" data-name="Caminho 137" d="M9.481,12.1,11,11.062l.427-1.351,1.979-.435c-1.159-.731.744-2.379,4.086-3.112l-1.368-.61,2.636-.462-.027-1.314.174-.337c.041-.958.434-.625,2.626-1.085L25.556-.783l1.056.359-.26.957-2.1.427,1.023,1.288c-1.9.436-2.448.128-2.489,1.073l-.014.336c-.063,1.264-4.247,3.883-2.8,4.777-2.04.447-2.585.14-2.633,1.085L17.3,10.526c-.041.959-.434.626-2.626,1.086l2.286.667-2.1.734,1.115.551c-3.44.749-4.09,1.307-2.783,2.114l-2.538.441L9.3,18.817l2.247,1.947-2.41.426-1.58-1.3L6.544,19.9,6.5,20.907l-.608,1.348-2.04.074,1.171.976c-3.309.676-3.389.437-3.878,1.786-4.073-.646-1.224-1.337-1.167-2.645l.014-.336c.048-.959.434-.626,2.633-1.086l-.1-1.34.21-1.009c.05-1.165,2.6-.589,2.655-1.756.061-1.264.88-.661,1.385-2.053l2.616-2.093Z" transform="translate(1603.79 43.234)" fill="#193665" fill-rule="evenodd"/>
      <path id="Caminho_138" data-name="Caminho 138" d="M6.121,6.2C11.21,4.1,12.376,5.251,16.628,3.5l2.5.288a16.348,16.348,0,0,1,7.846-.938l2.82-1.05,2.312.253a16.327,16.327,0,0,1,7.846-.938C43.172-.1,48.126.054,52.944-.954L60.7-1.112A45.546,45.546,0,0,0,68.476-2.1c3.378.336-1.08.368,3.859.218l1.291-.039L83.977-2.54l7.753-.186L98.2-2.807l-.066.814,5.392.361-4.13.271-7.726-.109-3.881.127A16.209,16.209,0,0,0,83.9-.89c-2.008-.336,2.642-.416-2.569-.257l-1.3.04-7.732.4-5.57.83L64.261-.226,61.649.39l-7.5.216a45.674,45.674,0,0,0-7.773.985L41.2,1.452l-1.4.657c-4.7-.357-4.123.661-8.934.29C26.606,4.013,9.8,5.093,7.445,6.8c-6,.312-2.243-.29-5.194.828L-.317,7.367,3.838,5.953Z" transform="translate(1754.634 -6.921)" fill="#193665" fill-rule="evenodd"/>
      <path id="Caminho_139" data-name="Caminho 139" d="M82.577,8.814c-.05-.1-.511-.3-3.243.166C77.459,8.362,59.377,6.569,56.4,6.958l-2.789-.91-2.34.4-2.8-.91-2.53.441c-3.822-1.259-3.286.155-7.741-1.468l-2.293.321-5.428-.756-2.529.44c-4.389-1.6-3.847-.182-7.742-1.467l-2.167.22L7.36,2.093,5.089,2.46,2.164,1.928l1.15-.617L-.017.392l1.1-.425c4.777.455,10,.6,12.884,1.647l2.53-.44c4.292.847,5.232.386,9.019,1.764l2.31-.382L31.9,3.575l5.982-.037.763-1.1L43.467,3.7l3.066-.112.951,1.051,5.565-1.22-.8,1.394,2.8.909,2.341-.395,2.8.909,2.53-.441c3.822,1.26,3.279-.156,7.735,1.469l2.538-.44a75.777,75.777,0,0,0,10.25,1.362A2.835,2.835,0,0,0,82.577,8.814Z" transform="translate(1900.01 -49.892)" fill="#193665" fill-rule="evenodd"/>
      <path id="Caminho_140" data-name="Caminho 140" d="M-.029.671l2.5.288L2.583-.079c3.815.551,8.477,1.215,8.9,2.745l3.874-.118-1.432.7,6.786,1.41,3.5-.427.059.731c5.334-.047,5.367.26,7.69,1.107l2.531-.441c.6,1.969,10.154,2.22,3.774,3.6-1.193-.845-9.368-2.069-12.747-3.3l-2.531.441L18.108,5.071l-.319.753L15.206,5.9C14.15,2.077.794,3.646-.029.671Z" transform="translate(1114.049 82.927)" fill="#193665" fill-rule="evenodd"/>
      <path id="Caminho_141" data-name="Caminho 141" d="M1.112,5.69-.231,5.367,3.924,3.953l2.283.242L7.7,3.469l2.393.273c4.125-1.569,7.078-.785,9.2-2.319l2.5.289L24.678.629c3.3.235,3.242.2,3.73-1.159L40.037-.884l7.754-.58,3.882-.109c-1.5.571-.27.678-3.9.789l-1.291.04C42.053-.61,34.637.684,30.947.4l-2.813,1.05-3.682.041,1.479,1.048-3.03.3C16.544,2.476,17.527,4,10.127,4.382c-1.245.9-3.857,1.333-6.536,1.875l.05-1.007Z" transform="translate(1750.158 -21.541)" fill="#193665" fill-rule="evenodd"/>
      <path id="Caminho_142" data-name="Caminho 142" d="M5.208,4.613l2.26.237.112-1.038,2.5.288L10.2,3.062l2.5.288.112-1.038,2.5.288L20.855.785l2.267.238L26-.059c3.2.3-1.266.334,3.672.183l3.88-.23,6.45-1.12,1.107.386c-2.285.9-.043.671-3.674.391C34.913.592,32.728.914,27.051,1.21c-1.532,1.11-13.17,4.1-16.989,4.872l3.961-2.132L11.44,4.03l-.029.671-2.5-.288C7.433,5.463,2.83,6.432-.3,7.068L-.275,6.4Z" transform="translate(1697.167 -36.703)" fill="#193665" fill-rule="evenodd"/>
      <path id="Caminho_143" data-name="Caminho 143" d="M.913,10.684l2.462-.433-1.3-.584,2.644-.461c-1.24-.78-.591-1.336,2.744-2.065-1.765-1.083,3.611-4.715,7.993-5.6C14.257.8,15.04.486,16.839-.516c5.116.811.4-.041,2.518,1.263l-4.637,1.9.769.541L12.51,3.9l1.425,1.037c-2.116.468-9,5.623-7.954,6.266-2.04.447-2.585.139-2.633,1.085C3.3,13.459,1.3,14.65-.664,15.43c.087-1.853.423-2.471,2.757-3.77Z" transform="translate(1653.908 17.247)" fill="#193665" fill-rule="evenodd"/>
      <path id="Caminho_144" data-name="Caminho 144" d="M43.785-.026c-1.978.4,2.677.195-2.534.353L37.378.445,24.461.558,20.605.621,12.872.512,8.991.639c-4.009.123-7.448.125-9-.4L3.862.124l18.1-.8,16.78-.361,1.272.059,7.732-.4L46.191-.181,48.92.167Z" transform="translate(1808.484 -55.392)" fill="#193665" fill-rule="evenodd"/>
      <path id="Caminho_145" data-name="Caminho 145" d="M3.957.56,6.374.141l10.58,1.245,2.275-.3,2.8.909-4.063.164-5.121.014-2.774-.739c-4.019.531-5.466-.221-10.111-.4L-.016.363l2.531-.44Z" transform="translate(1241.076 102.824)" fill="#193665" fill-rule="evenodd"/>
      <path id="Caminho_146" data-name="Caminho 146" d="M-.166,4.026C-.084,2.315,1.98,1.632,2.605-.08,4.612.244,5.185-.1,5.144.849l-.014.336L3.813,3.907C3.089,5.321,1.046,5.813.988,7.006L-.3,7.046Z" transform="translate(1639.7 27.393)" fill="#193665" fill-rule="evenodd"/>
      <path id="Caminho_147" data-name="Caminho 147" d="M4.349.3c-1.744-.025.87.356,0,0C4.765.306,5.4.332,6.432.4L6.366,1.742C6.324,2.719,4.242,5.552,1,6.262L0,4.937l2.3-.419L1,3.934l2.644-.462c-1.535-.957.908-1.116,1.482-2.7L.038,2.3-.04.931,3.037-.093A11.392,11.392,0,0,1,4.349.3Z" transform="translate(1662.017 8.359)" fill="#193665" fill-rule="evenodd"/>
      <path id="Caminho_148" data-name="Caminho 148" d="M6.391,1.481l-.014.336-.029.672L2.154,3.549,3.6,4.589l-3.686.824L-.159,3.691.45,2.343l1.986-.435L1.308,1.329,3.78.861,3.459-.106,7.573.488C6,1.37,6.455.2,6.391,1.481Z" transform="translate(1579.291 6.11)" fill="#193665" fill-rule="evenodd"/>
      <path id="Caminho_149" data-name="Caminho 149" d="M8.691.46l2.918.532L1.172,3.791l-1.317-.42L4.936.256l5.115-.564Z" transform="translate(1535.908 113.579)" fill="#193665" fill-rule="evenodd"/>
      <path id="Caminho_150" data-name="Caminho 150" d="M2.355,6.265C.7,5.23,4.59,4.272,5.178,2.521l.608-1.348C9.24.3,7.311,1.332,7.883-.241c5.483.869,1.292-.06,1.227,1.3L9.1,1.4c-.041.958-.434.627-2.626,1.085l.093,1.341-.174.337c-.05,1.165-2.6.59-2.662,1.756l-.014.337-.029.67-2.6.415L-.289,6.726Z" transform="translate(1628.693 35.101)" fill="#193665" fill-rule="evenodd"/>
      <path id="Caminho_151" data-name="Caminho 151" d="M9.283.19,11.6.321C14.553-.8,10.793-.2,16.794-.507L15.369.9,12.938.587c-2.878,1.188-2.193.33-2.724,1.787-3.386-.335,1.08-.368-3.859-.218l-6.462.33L4.048.937l4.862.208L8.237.491Z" transform="translate(1775.889 -19.983)" fill="#193665" fill-rule="evenodd"/>
      <path id="Caminho_152" data-name="Caminho 152" d="M11.8-.061c.929.2,1.52.309,1.9.36a1.965,1.965,0,0,0,.642.568C17.462.438,18.659.3,20.8,1.042l-5.229.42a41.68,41.68,0,0,0-7.691-.4l-5.121.014L-.015.339l5.4-.5A16.806,16.806,0,0,0,11.8-.061Z" transform="translate(1297.976 139.357)" fill="#193665" fill-rule="evenodd"/>
      <path id="Caminho_153" data-name="Caminho 153" d="M.008.122c-.149-.359,1.341.182,0,0Z" transform="translate(1311.703 139.533)" fill="#193665" fill-rule="evenodd"/>
      <path id="Caminho_154" data-name="Caminho 154" d="M15.16,1.354,12.89,1.72l-1.435-.638L9.03,1.5,3.61.744c-3.424.383-1.2.475-3.627-.336L5.1-.156,5.14.586,9.05.15l10.3.982-1.633.814Z" transform="translate(1877.915 -50.967)" fill="#193665" fill-rule="evenodd"/>
      <path id="Caminho_155" data-name="Caminho 155" d="M5.3,2.853,5.26,3.859c-.048.959-.434.626-2.633,1.086l-.05,1.678c-5.513-.869-1.322.06-1.256-1.3.061-1.414,2.652-1.682,2.735-3.435L4.107.879C4.134.231,4.54.269,5.441-.167l2.5.288L5.652.9l2.468.822C5.888,2.215,5.343,1.908,5.3,2.853Z" transform="translate(1630.077 29.362)" fill="#193665" fill-rule="evenodd"/>
      <path id="Caminho_156" data-name="Caminho 156" d="M2.533,1.263,1.164.652l1.622-.72,2.394-.09L5.152.512,3.541,2.9,1.17,2.98l.043,2.346-1.444.041.138-3.02C-.051,1.389.342,1.721,2.533,1.263Z" transform="translate(1647.473 32.853)" fill="#193665" fill-rule="evenodd"/>
      <path id="Caminho_157" data-name="Caminho 157" d="M5.083,1.22,1.46,2.371-.086,2.01C4.466.138,7.705,1.107,15.5-.475l1.369.611L9.912,1.177Z" transform="translate(1730.894 -51.111)" fill="#193665" fill-rule="evenodd"/>
      <path id="Caminho_158" data-name="Caminho 158" d="M15.542-.341l6.417-.332L11.2,1.128l-2.152-.1L3.544,2.114a14.2,14.2,0,0,0-3.176.009,1.475,1.475,0,0,0-.44-.457C5.342,1.175,12.659.593,15.542-.341Z" transform="translate(1718.716 -38.668)" fill="#193665" fill-rule="evenodd"/>
      <path id="Caminho_159" data-name="Caminho 159" d="M.234-.007c.153.334-.606.131,0,0Z" transform="translate(1718.85 -36.539)" fill="#193665" fill-rule="evenodd"/>
      <path id="Caminho_160" data-name="Caminho 160" d="M1.249,2.67,1.133,4.321l-1.321.039.079-1.678c.069-1.394.9-2.123,4-2.8L3.124,2.24Z" transform="translate(1590.22 -1.258)" fill="#193665" fill-rule="evenodd"/>
      <path id="Caminho_161" data-name="Caminho 161" d="M0,0C4.827.7,4.066,1.371,10.221,2.034l-1.32.71C5.087,2.193.416,1.53,0,0Z" transform="translate(1166.462 92.725)" fill="#193665" fill-rule="evenodd"/>
      <path id="Caminho_162" data-name="Caminho 162" d="M8.792.353c-3.2.479,1.265.24-3.666.391A13.708,13.708,0,0,1-.01.23L10.353-.317l2.479.206.042.62L10.292.586Z" transform="translate(1823.515 -45.784)" fill="#193665" fill-rule="evenodd"/>
      <path id="Caminho_163" data-name="Caminho 163" d="M3.8,1.608c-.04.927-1.031.836-3.916,1.124L.125.763l3.6-.877Z" transform="translate(1559.521 27.104)" fill="#193665" fill-rule="evenodd"/>
      <path id="Caminho_164" data-name="Caminho 164" d="M6.4,1.217l-6.457.2C2.439.451.2.679,3.827.96L7.475-.229l4.085,1.287-1.522.327C6.867,1.1,11.334,1.065,6.4,1.217Z" transform="translate(1841.723 -49.194)" fill="#193665" fill-rule="evenodd"/>
      <path id="Caminho_165" data-name="Caminho 165" d="M10.266-.237l-.029.672C6.488.807,3.71,1.4,2.41,2.348l-2.5-.288L7.392-.226Z" transform="translate(1744.051 0.684)" fill="#193665" fill-rule="evenodd"/>
      <path id="Caminho_166" data-name="Caminho 166" d="M2.329.576l5.984.968.4.513-2.584.078L-.04.921,1.307-.04C4.639.144,3.925-.413,2.329.576Z" transform="translate(1143.697 126.949)" fill="#193665" fill-rule="evenodd"/>
      <path id="Caminho_167" data-name="Caminho 167" d="M5.057.263,6.348.223c4.688-.142,1.264-.115,2.517.2L14.03-.083,10.251.8,7.611.856,6.319.9,3.737.973-.03.691C3.94-.8-.184.422,5.057.263Z" transform="translate(1346.2 139.781)" fill="#193665" fill-rule="evenodd"/>
      <path id="Caminho_168" data-name="Caminho 168" d="M3.815,1.292A9.212,9.212,0,0,1-.017.4L6.4-.2,7.633.848C4.286,1.38,8.753,1.141,3.815,1.292Z" transform="translate(1869.135 -56.391)" fill="#193665" fill-rule="evenodd"/>
      <path id="Caminho_169" data-name="Caminho 169" d="M5.056.274,6.348.234c3.73-.114,5,0,6.426.475L11.548.993-.028.656C3.941-.793-.185.433,5.056.274Z" transform="translate(1327.345 142.355)" fill="#193665" fill-rule="evenodd"/>
      <path id="Caminho_170" data-name="Caminho 170" d="M6.568,1.229-.043,1,1.593-.049,7.7.815l1.491.936L6.61,1.83Z" transform="translate(1985.573 -41.456)" fill="#193665" fill-rule="evenodd"/>
      <path id="Caminho_171" data-name="Caminho 171" d="M6.507.385-.07,1.618-.026.611l9.141-.89,1.212.24-1.433.7Z" transform="translate(1732.06 -48.409)" fill="#193665" fill-rule="evenodd"/>
      <path id="Caminho_172" data-name="Caminho 172" d="M14.186.147,12.881.522C9.494.187,13.96.154,9.023.3,5.4.414,2.934,1.229-.011.244l6.464-.2C11.287-.1,11.257-.833,14.186.147Z" transform="translate(1369.052 134.903)" fill="#193665" fill-rule="evenodd"/>
      <path id="Caminho_173" data-name="Caminho 173" d="M3.791.248,1.5,1.026,3.97,1.85.034,2.728-.043,1.007C-.015.359.39.4,1.291-.04Z" transform="translate(1618.252 57.533)" fill="#193665" fill-rule="evenodd"/>
      <path id="Caminho_174" data-name="Caminho 174" d="M-.034.787,4.894-.15,5.14.629C8.8.128,6.575.035,9,.847l-7.788.49Z" transform="translate(1829.888 -16.376)" fill="#193665" fill-rule="evenodd"/>
      <path id="Caminho_175" data-name="Caminho 175" d="M5.278-.162l.043.741L7.9.5c-2.959,1.119.808.516-5.2.827L-.019.447Z" transform="translate(1199.365 98.353)" fill="#193665" fill-rule="evenodd"/>
      <path id="Caminho_176" data-name="Caminho 176" d="M2.575-.079c4.749.368,4.73-.564,7.717.436L-.045,1.038Z" transform="translate(1414.911 95.218)" fill="#193665" fill-rule="evenodd"/>
      <path id="Caminho_177" data-name="Caminho 177" d="M0,0C5.146-.045,4.208.008,6.413.81c3.665-.5,1.436-.594,3.65.169l-1.3.374C4.125.881,3.053,1.11,0,0Z" transform="translate(1974.496 -47.802)" fill="#193665" fill-rule="evenodd"/>
      <path id="Caminho_178" data-name="Caminho 178" d="M4.2,2.175-.1,2.262,3.428-.1C8.123.675,1.8.7,4.2,2.175Z" transform="translate(1561.922 24.441)" fill="#193665" fill-rule="evenodd"/>
      <path id="Caminho_179" data-name="Caminho 179" d="M0,0,3.874-.118l6.391,1.146C4.6,1.078,2.435.888,0,0Z" transform="translate(2038.498 -9.204)" fill="#193665" fill-rule="evenodd"/>
      <path id="Caminho_180" data-name="Caminho 180" d="M.014,2.644C-.607,1.284,1.529.754,4.553-.139,4.949.985,2.458,1.924.014,2.644Z" transform="translate(1592.026 79.431)" fill="#193665" fill-rule="evenodd"/>
      <path id="Caminho_181" data-name="Caminho 181" d="M2.051,1.277l-.029.671C-1.438,1.4-.572.381,4.7-.144L4.091,1.2Z" transform="translate(1449.306 81.103)" fill="#193665" fill-rule="evenodd"/>
      <path id="Caminho_182" data-name="Caminho 182" d="M9.108.583,7.57,1.264C3.485.672,5.922.455-.022.508,2.747-.556,3.951.025,9.108.583Z" transform="translate(2040.654 -0.058)" fill="#193665" fill-rule="evenodd"/>
      <path id="Caminho_183" data-name="Caminho 183" d="M11.413,2.029,0,0C6.1.034,9.15.855,11.413,2.029Z" transform="translate(1175.328 85.341)" fill="#193665" fill-rule="evenodd"/>
      <path id="Caminho_184" data-name="Caminho 184" d="M-.01.231C6.1-.087,6.465-.561,9.015.292,6.134.283,3.127,1.282-.01.231Z" transform="translate(1774.468 -44.963)" fill="#193665" fill-rule="evenodd"/>
      <path id="Caminho_185" data-name="Caminho 185" d="M6.619,1.114l-2.75.5C2.023.322,3.606,1.557-.016.364L2.515-.077Z" transform="translate(1041.348 109.237)" fill="#193665" fill-rule="evenodd"/>
      <path id="Caminho_186" data-name="Caminho 186" d="M1.862,2.3l-.877.069L-.048,1.12,4.772-.146Z" transform="translate(1566.786 19.503)" fill="#193665" fill-rule="evenodd"/>
      <path id="Caminho_187" data-name="Caminho 187" d="M-.014.335,2.591-.079C4.1.994,4.684.351,7.676,1.441,2.614,1.288,2.452,1.23-.014.335Z" transform="translate(2026.272 -23.909)" fill="#193665" fill-rule="evenodd"/>
      <path id="Caminho_188" data-name="Caminho 188" d="M6.512.266l-4.726,1.5L-.058,1.341l5.23-1.5Z" transform="translate(1448.117 90.783)" fill="#193665" fill-rule="evenodd"/>
      <path id="Caminho_189" data-name="Caminho 189" d="M-.012.275,5.225-.16,7.7.711,5.116.79C-.131.384,3.652,1.5-.012.275Z" transform="translate(1822.156 -16.301)" fill="#193665" fill-rule="evenodd"/>
      <path id="Caminho_190" data-name="Caminho 190" d="M0,0,9.01.4C6.211,1.472,2.55.841,0,0Z" transform="translate(1944.964 -50.59)" fill="#193665" fill-rule="evenodd"/>
      <path id="Caminho_191" data-name="Caminho 191" d="M-.014.335,5.193-.122,7.756-.238,4.935.814C-.125.443,3.658,1.562-.014.335Z" transform="translate(1742.171 -15.936)" fill="#193665" fill-rule="evenodd"/>
      <path id="Caminho_192" data-name="Caminho 192" d="M-.011.245,6.524-.2,6.409.72C.547.265,1.747,1.621-.011.245Z" transform="translate(1370.312 132.854)" fill="#193665" fill-rule="evenodd"/>
      <path id="Caminho_193" data-name="Caminho 193" d="M2.7-.083C6.142.464,5,1.163,1.318,1.969l-1.376-.61C4.06.463,2.13,1.492,2.7-.083Z" transform="translate(1611.519 -1.236)" fill="#193665" fill-rule="evenodd"/>
      <path id="Caminho_194" data-name="Caminho 194" d="M-.013.3c6.8-.353,6.382-.957,7.732.1C-.106.687,2.9,1.279-.013.3Z" transform="translate(1774.841 -53.089)" fill="#193665" fill-rule="evenodd"/>
      <path id="Caminho_195" data-name="Caminho 195" d="M-.012.279,1.51-.046,7.678,1.386C2.616,1.233,2.454,1.177-.012.279Z" transform="translate(1161.28 87.912)" fill="#193665" fill-rule="evenodd"/>
      <path id="Caminho_196" data-name="Caminho 196" d="M3.995-.122,5.05.237,1.318,1.97-.059,1.36Z" transform="translate(1608.757 0.858)" fill="#193665" fill-rule="evenodd"/>
      <path id="Caminho_197" data-name="Caminho 197" d="M6.41.839l-1.439.7L-.016.365,2.513-.077C4.058,1,.894.244,6.41.839Z" transform="translate(1152.697 128.633)" fill="#193665" fill-rule="evenodd"/>
      <path id="Caminho_198" data-name="Caminho 198" d="M2.493.957,2.613-.08,3.9-.119,3.839,1.223l-3.91.436L.071.639Z" transform="translate(1536.607 117.651)" fill="#193665" fill-rule="evenodd"/>
      <path id="Caminho_199" data-name="Caminho 199" d="M3.847.5C.191,1,2.419,1.092-.012.279L1.51-.046,8.984,1.011C2.892.993,6.9,1.5,3.847.5Z" transform="translate(1899.733 -20.675)" fill="#193665" fill-rule="evenodd"/>
      <path id="Caminho_200" data-name="Caminho 200" d="M5.4.842l-1.432.695-4-.793L.279-.009A27.7,27.7,0,0,0,5.4.842Z" transform="translate(1103.277 121.453)" fill="#193665" fill-rule="evenodd"/>
      <path id="Caminho_201" data-name="Caminho 201" d="M5.224-.16,5.181.847-.031.728C3.819-.787-.078.566,5.224-.16Z" transform="translate(1890.308 -41.218)" fill="#193665" fill-rule="evenodd"/>
      <path id="Caminho_202" data-name="Caminho 202" d="M7.958.321,6.613.715,0,.01C5.647-.162,6.068-.311,7.958.321Z" transform="translate(1273.598 139.163)" fill="#193665" fill-rule="evenodd"/>
      <path id="Caminho_203" data-name="Caminho 203" d="M3.8,1.559a15.2,15.2,0,0,1-1.583-.448c1.4,0-.842-.324,0,0-.4,0-1.1-.027-2.262-.1L.009,0C3.335.48,3.436.235,3.8,1.559Z" transform="translate(1063.793 113.944)" fill="#193665" fill-rule="evenodd"/>
      <path id="Caminho_204" data-name="Caminho 204" d="M6.39,1.146C2.45.722,1.426,1.018,0,0,3.719.146,5.2.3,6.39,1.146Z" transform="translate(1927.714 -40.011)" fill="#193665" fill-rule="evenodd"/>
      <path id="Caminho_205" data-name="Caminho 205" d="M-.029.671C-.009.218,1.428.124,2.583-.079l1.234,1.3C1.954,1.025-.059,1.38-.029.671Z" transform="translate(1157.519 80.934)" fill="#193665" fill-rule="evenodd"/>
      <path id="Caminho_206" data-name="Caminho 206" d="M6.688.73l-1.8.405L0,0,2.583-.078Z" transform="translate(1179.263 132.209)" fill="#193665" fill-rule="evenodd"/>
      <path id="Caminho_207" data-name="Caminho 207" d="M-.1,2.3l3-2.384C4.16,1.117,3.4,1.672-.1,2.3Z" transform="translate(1598.159 75.483)" fill="#193665" fill-rule="evenodd"/>
      <path id="Caminho_208" data-name="Caminho 208" d="M2.335.942,0,0,8.748.884Z" transform="translate(1980.335 -1.22)" fill="#193665" fill-rule="evenodd"/>
      <path id="Caminho_209" data-name="Caminho 209" d="M0,.038c6.18-.1,2.464-.474,5.319.468L2.788.947Z" transform="translate(1863.801 -56.495)" fill="#193665" fill-rule="evenodd"/>
      <path id="Caminho_210" data-name="Caminho 210" d="M-.03.687,6.57-.2,1.623,1.364Z" transform="translate(1425.234 127.408)" fill="#193665" fill-rule="evenodd"/>
      <path id="Caminho_211" data-name="Caminho 211" d="M5.526.555l-2.7.1-.036.671-2.837-.32L3.874-.119Z" transform="translate(1595.375 84.629)" fill="#193665" fill-rule="evenodd"/>
      <path id="Caminho_212" data-name="Caminho 212" d="M-.059,1.37,1.283.324l2.53-.441C3.131,1.531,5.622.423-.059,1.37Z" transform="translate(1695.748 -29.294)" fill="#193665" fill-rule="evenodd"/>
      <path id="Caminho_213" data-name="Caminho 213" d="M6.259,1.221-.029.665,1.419-.043Z" transform="translate(1130.092 125.682)" fill="#193665" fill-rule="evenodd"/>
      <path id="Caminho_214" data-name="Caminho 214" d="M0,0,5.1,1.185,0,.964Z" transform="translate(1169.186 89.29)" fill="#193665" fill-rule="evenodd"/>
      <path id="Caminho_215" data-name="Caminho 215" d="M0,0,5.165-.157C3.96.335,4.051,1.358,0,0Z" transform="translate(1831.375 -48.473)" fill="#193665" fill-rule="evenodd"/>
      <path id="Caminho_216" data-name="Caminho 216" d="M0,0,5.164-.157C2.5.547,1.692,1.321,0,0Z" transform="translate(1364.512 141.986)" fill="#193665" fill-rule="evenodd"/>
      <path id="Caminho_217" data-name="Caminho 217" d="M0,.005C5.989-.048,2.273-.422,5.136.519-.628.57,2.727.959,0,.005Z" transform="translate(1959.096 -49.349)" fill="#193665" fill-rule="evenodd"/>
      <path id="Caminho_218" data-name="Caminho 218" d="M2.239-.069c.7,1.527,1.806.442-1.5,1.5C.032-.1-1.072.987,2.239-.069Z" transform="translate(1604.775 71.643)" fill="#193665" fill-rule="evenodd"/>
      <path id="Caminho_219" data-name="Caminho 219" d="M3.8,1.325-.019.436,2.794-.086Z" transform="translate(1884.718 -8.574)" fill="#193665" fill-rule="evenodd"/>
      <path id="Caminho_220" data-name="Caminho 220" d="M-.012.28,5.55-.17,1.633.955Z" transform="translate(1394.087 135.798)" fill="#193665" fill-rule="evenodd"/>
      <path id="Caminho_221" data-name="Caminho 221" d="M1.633.954-.012.28l5.57-.45Z" transform="translate(1475.82 130.966)" fill="#193665" fill-rule="evenodd"/>
      <path id="Caminho_222" data-name="Caminho 222" d="M5.128.52C-.957.5,3.049,1.013,0,0,5.991-.047,2.273-.423,5.128.52Z" transform="translate(1221.804 136.271)" fill="#193665" fill-rule="evenodd"/>
      <path id="Caminho_223" data-name="Caminho 223" d="M3.6-.11,5.247.564l-5.293.513Z" transform="translate(1742.433 -49.525)" fill="#193665" fill-rule="evenodd"/>
      <path id="Caminho_224" data-name="Caminho 224" d="M6.4.81,3.822.889C-1.687.294,1.477,1.051,0,0Z" transform="translate(1234.087 102.394)" fill="#193665" fill-rule="evenodd"/>
      <path id="Caminho_225" data-name="Caminho 225" d="M3.9.3l-1.366.723L-.019.431l2.79-.516Z" transform="translate(1470.247 131.705)" fill="#193665" fill-rule="evenodd"/>
      <path id="Caminho_226" data-name="Caminho 226" d="M2.266-.069,3.888.6,2.4,1.028-.031.709Z" transform="translate(1799.253 -21.762)" fill="#193665" fill-rule="evenodd"/>
      <path id="Caminho_227" data-name="Caminho 227" d="M-.031.709l2.3-.779L3.888.6,2.4,1.028Z" transform="translate(1573.551 14.26)" fill="#193665" fill-rule="evenodd"/>
      <path id="Caminho_228" data-name="Caminho 228" d="M3.888.6,2.4,1.028-.03.709,2.258-.069Z" transform="translate(1406.108 138.979)" fill="#193665" fill-rule="evenodd"/>
      <path id="Caminho_229" data-name="Caminho 229" d="M3.881-.119,2.643,1.318-.043,1.006Z" transform="translate(1585.914 85.922)" fill="#193665" fill-rule="evenodd"/>
      <path id="Caminho_230" data-name="Caminho 230" d="M-.018.416,5.067-.155,1.47,1.072Z" transform="translate(1693.801 -42.985)" fill="#193665" fill-rule="evenodd"/>
      <path id="Caminho_231" data-name="Caminho 231" d="M1.352-.041l2.725.3L-.058,1.338Z" transform="translate(1719.608 -8.229)" fill="#193665" fill-rule="evenodd"/>
      <path id="Caminho_232" data-name="Caminho 232" d="M1.336-.041l2.7.5L2.4.942-.027.624Z" transform="translate(1743.354 -40.082)" fill="#193665" fill-rule="evenodd"/>
      <path id="Caminho_233" data-name="Caminho 233" d="M4.043.5,1.572.968-.025.585,2.734-.084Z" transform="translate(1958.08 -5.063)" fill="#193665" fill-rule="evenodd"/>
      <path id="Caminho_234" data-name="Caminho 234" d="M0,0,3.874-.119.226,1.07Z" transform="translate(1455.136 88.632)" fill="#193665" fill-rule="evenodd"/>
      <path id="Caminho_235" data-name="Caminho 235" d="M3.623.627l-2.53.441L-.029.682,2.107-.065Z" transform="translate(1099.778 120.823)" fill="#193665" fill-rule="evenodd"/>
      <path id="Caminho_236" data-name="Caminho 236" d="M3.132.555c-1.018-.11.074.269,0,0C3.5.6,4.117.695,5.18.914L-.034.8l2.421-.87C2.92.27,3.1.455,3.132.555Z" transform="translate(1173.865 131.302)" fill="#193665" fill-rule="evenodd"/>
      <path id="Caminho_237" data-name="Caminho 237" d="M-.076,1.777,3.2-.1C3.39,1.332,3.309,1.092-.076,1.777Z" transform="translate(1406.666 96.038)" fill="#193665" fill-rule="evenodd"/>
      <path id="Caminho_238" data-name="Caminho 238" d="M2.5-.077.753,1.886C-.607.539-.331.763,2.5-.077Z" transform="translate(1602.931 73.152)" fill="#193665" fill-rule="evenodd"/>
      <path id="Caminho_239" data-name="Caminho 239" d="M-.029.682,2.114-.065,3.564.6,1.1,1.067Z" transform="translate(1651.177 14.579)" fill="#193665" fill-rule="evenodd"/>
      <path id="Caminho_240" data-name="Caminho 240" d="M1.093,1.068-.029.682,2.107-.065,3.556.6Z" transform="translate(1570.9 17.022)" fill="#193665" fill-rule="evenodd"/>
      <path id="Caminho_241" data-name="Caminho 241" d="M4.123.221,1.364.89-.012.279,2.371-.073Z" transform="translate(2017.654 -4.827)" fill="#193665" fill-rule="evenodd"/>
      <path id="Caminho_242" data-name="Caminho 242" d="M4.116.221,1.357.89-.012.279,2.371-.073Z" transform="translate(2035.522 -0.679)" fill="#193665" fill-rule="evenodd"/>
      <path id="Caminho_243" data-name="Caminho 243" d="M-.043,1C.442-.084-.44.6,3.882-.119,2.3,1.025,5.548.074-.043,1Z" transform="translate(1741.929 -38.715)" fill="#193665" fill-rule="evenodd"/>
      <path id="Caminho_244" data-name="Caminho 244" d="M2.588.853-.025.586,2.734-.084l1.16.562Z" transform="translate(1941.581 -38.74)" fill="#193665" fill-rule="evenodd"/>
      <path id="Caminho_245" data-name="Caminho 245" d="M0,0C5.516.594,2.352-.163,3.831.888-1.687.294,1.478,1.051,0,0Z" transform="translate(1876.223 -42.131)" fill="#193665" fill-rule="evenodd"/>
      <path id="Caminho_246" data-name="Caminho 246" d="M2.989,1l-3.033.018,2.528-1.1Z" transform="translate(1518.627 120.788)" fill="#193665" fill-rule="evenodd"/>
      <path id="Caminho_247" data-name="Caminho 247" d="M2.988,1l-3.032.018,2.536-1.1Z" transform="translate(1557.54 30.473)" fill="#193665" fill-rule="evenodd"/>
      <path id="Caminho_248" data-name="Caminho 248" d="M0,0,2.836-.019.225.73Z" transform="translate(2034.436 -5.059)" fill="#193665" fill-rule="evenodd"/>
      <path id="Caminho_249" data-name="Caminho 249" d="M0,.066l2.85-.153-.3.746Z" transform="translate(1226.679 93.928)" fill="#193665" fill-rule="evenodd"/>
      <path id="Caminho_250" data-name="Caminho 250" d="M.225.73,0,0,2.836-.02Z" transform="translate(1629.817 66.898)" fill="#193665" fill-rule="evenodd"/>
      <path id="Caminho_251" data-name="Caminho 251" d="M2.583-.079l.225.731L-.029.671Z" transform="translate(1400.583 135.126)" fill="#193665" fill-rule="evenodd"/>
      <path id="Caminho_252" data-name="Caminho 252" d="M2.583-.079l.225.73L-.029.671Z" transform="translate(1387.48 129.494)" fill="#193665" fill-rule="evenodd"/>
      <path id="Caminho_253" data-name="Caminho 253" d="M2.55.66,0,.067,2.839-.087Z" transform="translate(1898.185 -48.496)" fill="#193665" fill-rule="evenodd"/>
      <path id="Caminho_254" data-name="Caminho 254" d="M0,.067,2.839-.087,2.551.659Z" transform="translate(2013.647 -35.253)" fill="#193665" fill-rule="evenodd"/>
      <path id="Caminho_255" data-name="Caminho 255" d="M0,.066l2.85-.153-.3.746Z" transform="translate(2023.912 -34.225)" fill="#193665" fill-rule="evenodd"/>
      <path id="Caminho_256" data-name="Caminho 256" d="M2.808.651-.029.671l2.611-.75Z" transform="translate(1264.134 138.608)" fill="#193665" fill-rule="evenodd"/>
      <path id="Caminho_257" data-name="Caminho 257" d="M2.543.659,0,.067,2.839-.087Z" transform="translate(1202.846 134.843)" fill="#193665" fill-rule="evenodd"/>
      <path id="Caminho_258" data-name="Caminho 258" d="M2.551.659,0,.067l2.85-.154Z" transform="translate(1584.271 92.41)" fill="#193665" fill-rule="evenodd"/>
      <path id="Caminho_259" data-name="Caminho 259" d="M2.59-.079l.225.731L-.029.671Z" transform="translate(1615.391 -2.762)" fill="#193665" fill-rule="evenodd"/>
      <path id="Caminho_260" data-name="Caminho 260" d="M0,.067,2.839-.087,2.551.659Z" transform="translate(1188.547 87.493)" fill="#193665" fill-rule="evenodd"/>
      <path id="Caminho_261" data-name="Caminho 261" d="M0,.066,2.839-.087,2.551.659Z" transform="translate(1239.97 95.534)" fill="#193665" fill-rule="evenodd"/>
      <path id="Caminho_262" data-name="Caminho 262" d="M2.543.659,0,.066,2.839-.087Z" transform="translate(1168.274 131.204)" fill="#193665" fill-rule="evenodd"/>
      <path id="Caminho_263" data-name="Caminho 263" d="M2.551.659,0,.066,2.84-.087Z" transform="translate(1623.043 63.084)" fill="#193665" fill-rule="evenodd"/>
      <path id="Caminho_264" data-name="Caminho 264" d="M2.839-.087l-.3.746L0,.066Z" transform="translate(2036.245 -21.867)" fill="#193665" fill-rule="evenodd"/>
      <path id="Caminho_265" data-name="Caminho 265" d="M0,0,1.5.234,2.553.592-.029.671Z" transform="translate(1174.42 90.472)" fill="#193665" fill-rule="evenodd"/>
      <path id="Caminho_266" data-name="Caminho 266" d="M2.583-.079,1.493.346-.029.671,0,0Z" transform="translate(1751.167 -15.206)" fill="#193665" fill-rule="evenodd"/>
      <path id="Caminho_267" data-name="Caminho 267" d="M-.029.67,1.06.246,2.583-.079,2.554.592Z" transform="translate(1459.147 87.84)" fill="#193665" fill-rule="evenodd"/>
      <path id="Caminho_268" data-name="Caminho 268" d="M2.554.593-.029.671,0,0,1.491.234Z" transform="translate(1061.131 113.354)" fill="#193665" fill-rule="evenodd"/>
      <path id="Caminho_269" data-name="Caminho 269" d="M.265-.008,2.551.661-.032.739Z" transform="translate(2028.03 -34.083)" fill="#193665" fill-rule="evenodd"/>
      <path id="Caminho_270" data-name="Caminho 270" d="M.257-.008,2.543.659-.032.738Z" transform="translate(2040.364 -21.725)" fill="#193665" fill-rule="evenodd"/>
      <path id="Caminho_271" data-name="Caminho 271" d="M0,0,2.568.256.029.719Z" transform="translate(1729.423 -47.048)" fill="#193665" fill-rule="evenodd"/>
      <path id="Caminho_272" data-name="Caminho 272" d="M-.029.671,0,0,2.554.592Z" transform="translate(1313.651 142.529)" fill="#193665" fill-rule="evenodd"/>
      <path id="Caminho_273" data-name="Caminho 273" d="M-.029.671,0,0,2.554.592Z" transform="translate(1233.738 136.919)" fill="#193665" fill-rule="evenodd"/>
      <path id="Caminho_274" data-name="Caminho 274" d="M0,0,2.554.592-.029.671Z" transform="translate(1176.82 96.43)" fill="#193665" fill-rule="evenodd"/>
      <path id="Caminho_275" data-name="Caminho 275" d="M2.554.593-.029.671,0,0Z" transform="translate(1177.009 92.403)" fill="#193665" fill-rule="evenodd"/>
      <path id="Caminho_276" data-name="Caminho 276" d="M-.029.671,0,0,2.554.593Z" transform="translate(1164.565 130.311)" fill="#193665" fill-rule="evenodd"/>
      <path id="Caminho_277" data-name="Caminho 277" d="M-.029.671,0,0,2.554.592Z" transform="translate(1050.552 110.995)" fill="#193665" fill-rule="evenodd"/>
      <path id="Caminho_278" data-name="Caminho 278" d="M-.029.671,0,0,2.553.592Z" transform="translate(1058.484 112.764)" fill="#193665" fill-rule="evenodd"/>
      <path id="Caminho_279" data-name="Caminho 279" d="M-.029.671,0,0,2.553.593Z" transform="translate(1678.933 15.811)" fill="#193665" fill-rule="evenodd"/>
      <path id="Caminho_280" data-name="Caminho 280" d="M2.553.592,0,0,2.582-.079Z" transform="translate(1842.558 -11.284)" fill="#193665" fill-rule="evenodd"/>
    </g>
    <path id="Caminho_402" data-name="Caminho 402" d="M75.238,94.336S230.247,162.521,393.264,99.7,643.018-17.169,854.211,39.338s328.995,115.861,512.721,72.227,133.379-12.613,164.936-45.148S1585.1-39.148,1753.008-44.75s378.6,55.893,378.6,55.893l-464.38,547.375L294.138,678.647-1.821,64.364Z" transform="matrix(0.996, 0.087, -0.087, 0.996, -244.383, 2556.793)" fill="#193665"/>
  </g>
</svg>
