<svg xmlns="http://www.w3.org/2000/svg" width="22.25" height="15.658" viewBox="0 0 22.25 15.658">
  <path id="Caminho_36" data-name="Caminho 36" d="M263.093,52.344c-.8-.955-2.286-1.344-5.118-1.344H247.7c-2.9,0-4.4.415-5.2,1.431-.78.991-.78,2.452-.78,4.473v3.852c0,3.916.926,5.9,5.985,5.9h10.28c2.456,0,3.817-.344,4.7-1.186.9-.864,1.288-2.275,1.288-4.718V56.9c0-2.132-.06-3.6-.867-4.56ZM256,59.361,251.327,61.8a.718.718,0,0,1-1.051-.636V56.3a.718.718,0,0,1,1.049-.637l4.668,2.424a.718.718,0,0,1,0,1.273Zm0,0" transform="translate(-241.71 -51)" fill="#ef7803"/>
</svg>
